<?xml version="1.0" encoding="utf-8"?>
<!-- Generator: Adobe Illustrator 23.0.2, SVG Export Plug-In . SVG Version: 6.00 Build 0)  -->
<svg version="1.1" xmlns="http://www.w3.org/2000/svg" xmlns:xlink="http://www.w3.org/1999/xlink" x="0px" y="0px"
	 viewBox="0 0 411.4 447.8" style="enable-background:new 0 0 411.4 447.8;" xml:space="preserve">
<style type="text/css">
	.st0{fill:none;stroke:#17283C;stroke-width:0.5;stroke-miterlimit:10;}
	.st1{fill:#17283C;}
	.st2{opacity:0.3;}
	.st3{fill:none;stroke:#17283C;stroke-width:0.75;stroke-miterlimit:10;}
	.st4{fill-rule:evenodd;clip-rule:evenodd;fill:#17283C;stroke:#17283C;stroke-miterlimit:10;}
	.st5{fill:#B0B2B4;stroke:#17283C;stroke-miterlimit:10;}
	.st6{fill:#DFE0E1;}
	.st7{display:none;}
	.st8{display:inline;fill:#DFE0E1;}
	.st9{fill:#1F374F;}
	.st10{fill:#FFFFFF;}
	.st11{fill:#11638C;}
	.st12{fill:#7E7F7F;}
	.st13{fill:#B0B2B4;}
	.st14{fill:#FAFAFA;}
	.st15{font-family:'MyriadPro-Regular';}
	.st16{font-size:20px;}
	.st17{fill:#17283C;stroke:#17283C;stroke-width:0.5;stroke-miterlimit:10;}
	.st18{fill:#17283C;stroke:#17283C;stroke-miterlimit:10;}
	.st19{fill:#939393;}
	.st20{font-family:'ArialMT';}
	.st21{font-size:5px;}
	.st22{fill:#455A64;}
	.st23{fill:#FFBE9D;}
	.st24{opacity:0.6;}
	.st25{fill:#EB996E;}
</style>
<g id="Background_Complete">
	<g>
		<g>
			<g>
				<g>
					<rect x="2.9" y="86.2" class="st0" width="125.2" height="83.8"/>
				</g>
			</g>
			<g>
				<g>
					<g>
						<path class="st0" d="M128.1,170c0,0,0-0.5,0-1.5c0-1,0-2.5,0-4.4c0-3.9,0-9.6,0-16.9c0-14.6-0.1-35.5-0.1-61l0.2,0.2
							c-34.5,0-78,0-125.2,0h0l0.2-0.2c0,29.9,0,58.3,0,83.8l-0.2-0.2c36.9,0,68.1,0.1,90.2,0.1c11,0,19.8,0,25.8,0.1
							c3,0,5.3,0,6.9,0c0.8,0,1.4,0,1.8,0C127.9,170,128.1,170,128.1,170s-0.2,0-0.6,0c-0.4,0-1,0-1.7,0c-1.6,0-3.8,0-6.8,0
							c-6,0-14.7,0-25.7,0.1c-22.1,0-53.4,0.1-90.3,0.1l-0.2,0V170c0-25.6,0-54,0-83.8l0-0.2h0.2h0c47.2,0,90.7,0,125.2,0l0.2,0
							l0,0.2c0,25.6-0.1,46.5-0.1,61.1c0,7.3,0,13,0,16.8c0,1.9,0,3.4,0,4.4C128.1,169.5,128.1,170,128.1,170z"/>
					</g>
				</g>
			</g>
		</g>
		<g>
			<g>
				<g>
					<path class="st1" d="M2.9,93.6c0-0.1,28-0.2,62.6-0.2c34.6,0,62.6,0.1,62.6,0.2c0,0.1-28,0.2-62.6,0.2
						C30.9,93.9,2.9,93.8,2.9,93.6z"/>
				</g>
			</g>
		</g>
		<g>
			<g class="st2">
				<g>
					<path class="st1" d="M7.8,89.9c0,0.6-0.4,1-1,1c-0.6,0-1-0.4-1-1s0.4-1,1-1C7.4,88.9,7.8,89.3,7.8,89.9z"/>
				</g>
			</g>
			<g class="st2">
				<g>
					<circle class="st1" cx="10.2" cy="89.9" r="1"/>
				</g>
			</g>
			<g class="st2">
				<g>
					<path class="st1" d="M14.6,89.9c0,0.6-0.4,1-1,1c-0.6,0-1-0.4-1-1s0.4-1,1-1C14.2,88.9,14.6,89.3,14.6,89.9z"/>
				</g>
			</g>
		</g>
		<g>
			<g>
				<rect x="13.6" y="102.4" class="st1" width="33.4" height="33.4"/>
			</g>
		</g>
		<g>
			<g>
				<g>
					<path class="st1" d="M110.9,111.8c0,0.1-13,0.2-29.1,0.2c-16.1,0-29.1-0.1-29.1-0.2c0-0.1,13-0.2,29.1-0.2
						C97.9,111.6,110.9,111.7,110.9,111.8z"/>
				</g>
			</g>
		</g>
		<g>
			<g>
				<g>
					<path class="st1" d="M110.9,118c0,0.1-13,0.2-29.1,0.2c-16.1,0-29.1-0.1-29.1-0.2c0-0.1,13-0.2,29.1-0.2
						C97.9,117.8,110.9,117.9,110.9,118z"/>
				</g>
			</g>
		</g>
		<g>
			<g>
				<g>
					<path class="st1" d="M110.9,124.2c0,0.1-13,0.2-29.1,0.2c-16.1,0-29.1-0.1-29.1-0.2c0-0.1,13-0.2,29.1-0.2
						C97.9,124,110.9,124.1,110.9,124.2z"/>
				</g>
			</g>
		</g>
		<g>
			<g>
				<g>
					<path class="st1" d="M87.1,130.5c0,0-0.5,0.1-1.4,0.1c-1,0-2.2,0-3.7,0.1c-3.1,0-7.4,0.1-12.2,0.1c-4.7,0-9,0-12.2-0.1
						c-1.5,0-2.7-0.1-3.7-0.1c-0.9,0-1.4-0.1-1.4-0.1c0,0,0.5-0.1,1.4-0.1c1,0,2.2,0,3.7-0.1c3.1,0,7.4-0.1,12.2-0.1
						c4.7,0,9,0,12.2,0.1c1.5,0,2.7,0.1,3.7,0.1C86.6,130.4,87.1,130.4,87.1,130.5z"/>
				</g>
			</g>
		</g>
		<g>
			<g>
				<rect x="15.7" y="147.1" class="st1" width="15.7" height="15.7"/>
			</g>
		</g>
		<g>
			<g>
				<rect x="44.2" y="147.1" class="st1" width="15.7" height="15.7"/>
			</g>
		</g>
		<g>
			<g>
				<rect x="72.7" y="147.1" class="st1" width="15.7" height="15.7"/>
			</g>
		</g>
		<g>
			<g>
				<rect x="101.1" y="147.1" class="st1" width="15.7" height="15.7"/>
			</g>
		</g>
	</g>
	<g>
		<g>
			<g>
				<g>
					<g>
						<g>
							<g>
								<path class="st0" d="M362.2,113.4c-0.8,1.1-1.7,2-2.7,2.8l0.7,3.5l-5.4,2.4l-2.1-2.9c-1.3,0.2-2.6,0.2-3.9,0.1l-2,3
									l-5.5-2.1l0.5-3.5c-1.1-0.8-2-1.7-2.8-2.7l-3.5,0.7l-2.4-5.4l2.9-2.1c-0.2-1.3-0.2-2.6-0.1-3.9l-3-2l2.1-5.5l3.5,0.5
									c0.8-1.1,1.7-2,2.7-2.8l-0.7-3.5l5.4-2.4l2.1,2.9c1.3-0.2,2.6-0.2,3.9-0.1l2-3l5.5,2.1L359,93c1.1,0.8,2,1.7,2.8,2.7
									l3.5-0.7l2.4,5.4l-2.9,2.1c0.2,1.3,0.2,2.6,0.1,3.9l3,2l-2.1,5.5L362.2,113.4L362.2,113.4z M356.3,107.4
									c1.3-3.3-0.4-6.9-3.6-8.2c-3.3-1.3-6.9,0.4-8.2,3.6c-1.3,3.3,0.4,6.9,3.6,8.2C351.3,112.3,355,110.7,356.3,107.4z"/>
							</g>
						</g>
					</g>
				</g>
			</g>
			<g>
				<g>
					<g>
						<g>
							<g>
								<g>
									<path class="st3" d="M356.3,107.4c0,0-0.1,0.6-0.7,1.4c-0.6,0.8-1.7,2-3.4,2.5c-0.9,0.3-1.9,0.4-3,0.2
										c-1.1-0.2-2.2-0.7-3.1-1.5c-0.5-0.4-0.9-0.9-1.2-1.4c-0.4-0.5-0.6-1.1-0.8-1.8c-0.4-1.3-0.3-2.7,0.2-4.1
										c0.5-1.3,1.4-2.4,2.6-3.1c0.6-0.4,1.2-0.6,1.8-0.8c0.6-0.2,1.2-0.3,1.9-0.2c1.2,0,2.4,0.4,3.3,1c0.9,0.6,1.6,1.3,2.1,2.1
										c1,1.6,1,3.2,0.9,4.2C356.5,106.9,356.3,107.4,356.3,107.4c0,0,0.2-0.5,0.3-1.5c0.1-1,0-2.5-0.9-4c-0.5-0.7-1.1-1.5-2-2
										c-0.9-0.5-2-0.9-3.1-0.9c-0.6,0-1.2,0.1-1.8,0.2c-0.6,0.2-1.2,0.4-1.7,0.8c-1.1,0.7-1.9,1.7-2.4,3
										c-0.5,1.3-0.5,2.6-0.2,3.8c0.2,0.6,0.4,1.2,0.7,1.7c0.3,0.5,0.7,1,1.2,1.3c0.9,0.8,1.9,1.2,2.9,1.4c1,0.2,2,0.1,2.9-0.1
										c1.7-0.5,2.8-1.6,3.4-2.3C356,107.9,356.2,107.4,356.3,107.4z"/>
								</g>
							</g>
						</g>
					</g>
				</g>
			</g>
			<g>
				<g>
					<g>
						<g>
							<g>
								<g>
									<path class="st0" d="M362.2,113.4c0,0,0.1,0,0.2,0c0.2,0,0.4,0,0.7,0.1c0.6,0.1,1.5,0.2,2.7,0.4l-0.1,0
										c0.5-1.4,1.2-3.3,2.1-5.5l0,0.1c-0.9-0.6-1.9-1.3-3-2l-0.1,0l0-0.1c0.1-1.2,0.1-2.5-0.1-3.8l0-0.1l0.1,0
										c0.9-0.7,1.9-1.4,2.9-2.1l0,0.2c-0.8-1.7-1.6-3.5-2.4-5.4l0.2,0.1c-1.1,0.2-2.3,0.5-3.5,0.7l-0.1,0l-0.1-0.1
										c-0.7-0.9-1.7-1.8-2.8-2.6l-0.1-0.1l0-0.1c0.2-1.1,0.3-2.3,0.5-3.5l0.1,0.2c-1.7-0.7-3.6-1.4-5.5-2.1l0.2-0.1
										c-0.6,0.9-1.3,1.9-2,3l-0.1,0.1l-0.1,0c-1.2-0.1-2.5-0.1-3.8,0.1l-0.1,0l-0.1-0.1c-0.7-0.9-1.4-1.9-2.1-2.9l0.2,0.1
										c-1.7,0.8-3.5,1.6-5.4,2.4l0.1-0.2c0.2,1.1,0.5,2.3,0.7,3.5l0,0.1l-0.1,0.1c-0.9,0.8-1.9,1.7-2.6,2.8l0,0l0,0
										c-0.1,0,0.2-0.1-0.2,0.1l0,0l0,0l0,0l0,0l-0.1,0l-0.1,0l-0.2,0l-0.4-0.1l-0.9-0.1c-0.6-0.1-1.2-0.2-1.8-0.3l0.2-0.1
										c-0.7,1.9-1.4,3.7-2.1,5.5l-0.1-0.2c1,0.7,2,1.3,3,2l0.1,0.1l0,0.1c-0.1,1.3-0.1,2.6,0.1,3.8l0,0.1l-0.1,0.1
										c-1,0.7-1.9,1.4-2.9,2.1l0.1-0.2c0.8,1.8,1.6,3.7,2.4,5.4l-0.2-0.1c1.2-0.2,2.4-0.5,3.5-0.7l0.1,0l0.1,0.1
										c0.8,1,1.7,1.9,2.8,2.6l0.1,0.1l0,0.1c-0.2,1.2-0.4,2.4-0.5,3.5l-0.1-0.2c1.9,0.8,3.8,1.5,5.5,2.1l-0.2,0.1
										c0.7-1,1.4-2,2-3l0-0.1l0.1,0c1.4,0.2,2.6,0.1,3.8-0.1l0.1,0l0,0.1c0.8,1,1.5,2,2.1,2.9l-0.1,0c2.1-0.9,3.9-1.7,5.4-2.4
										l0,0.1c-0.3-1.4-0.5-2.6-0.7-3.5l0,0l0,0c1-0.8,1.7-1.5,2.1-2c0.2-0.2,0.3-0.4,0.5-0.6
										C362.2,113.5,362.2,113.4,362.2,113.4c0,0,0,0.1-0.1,0.2c-0.1,0.1-0.2,0.3-0.4,0.6c-0.4,0.5-1,1.2-2.1,2.1l0-0.1
										c0.2,1,0.4,2.1,0.7,3.5l0,0.1l-0.1,0c-1.5,0.7-3.3,1.5-5.4,2.4l-0.1,0l-0.1-0.1c-0.7-0.9-1.4-1.8-2.1-2.9l0.1,0
										c-1.2,0.2-2.5,0.3-3.9,0.1l0.1-0.1c-0.6,0.9-1.3,1.9-2,3l-0.1,0.1l-0.1,0c-1.7-0.7-3.6-1.4-5.5-2.1l-0.1,0l0-0.1
										c0.2-1.1,0.3-2.3,0.5-3.5l0.1,0.2c-1-0.7-2-1.6-2.8-2.7l0.2,0.1c-1.1,0.2-2.3,0.5-3.5,0.7l-0.1,0l-0.1-0.1
										c-0.8-1.8-1.6-3.6-2.4-5.4l-0.1-0.1l0.1-0.1c0.9-0.7,1.9-1.4,2.9-2.1l-0.1,0.2c-0.2-1.3-0.2-2.6-0.1-3.9l0.1,0.2
										c-1-0.7-2-1.3-3-2l-0.1-0.1l0.1-0.1c0.7-1.8,1.4-3.7,2.1-5.5l0.1-0.1l0.1,0c0.6,0.1,1.2,0.2,1.8,0.3l0.9,0.1l0.4,0.1l0.2,0
										l0.1,0l0.1,0l0,0l0,0l0,0l0,0c-0.3,0.1-0.1,0-0.2,0.1l0,0l0,0c0.8-1.1,1.7-2,2.7-2.8l-0.1,0.2c-0.2-1.2-0.5-2.4-0.7-3.5
										l0-0.1l0.1-0.1c1.9-0.8,3.7-1.6,5.4-2.4l0.1-0.1l0.1,0.1c0.7,1,1.5,2,2.1,2.9l-0.2-0.1c1.3-0.2,2.7-0.2,3.9-0.1l-0.2,0.1
										c0.7-1,1.4-2,2-3l0.1-0.1l0.1,0c1.9,0.7,3.8,1.5,5.5,2.1l0.1,0l0,0.1c-0.2,1.2-0.4,2.4-0.5,3.5l-0.1-0.1
										c1.1,0.8,2.1,1.7,2.8,2.7l-0.1-0.1c1.2-0.2,2.4-0.5,3.5-0.7l0.1,0l0,0.1c0.8,1.9,1.6,3.7,2.4,5.4l0,0.1l-0.1,0.1
										c-1,0.7-2,1.5-2.9,2.1l0-0.1c0.2,1.4,0.2,2.7,0.1,3.9l0-0.1c1.1,0.7,2.1,1.4,3,2l0.1,0l0,0.1c-0.9,2.2-1.6,4.1-2.2,5.5l0,0
										l0,0c-1.1-0.2-2-0.3-2.6-0.4c-0.3,0-0.5-0.1-0.7-0.1C362.3,113.4,362.2,113.4,362.2,113.4z"/>
								</g>
							</g>
						</g>
					</g>
				</g>
			</g>
		</g>
		<g>
			<g>
				<g>
					<g>
						<g>
							<path class="st4" d="M393.7,96.6c-0.6,0.9-1.4,1.7-2.2,2.3l0.6,2.9l-4.5,2l-1.8-2.4c-1,0.2-2.1,0.2-3.2,0.1l-1.7,2.5
								l-4.6-1.8l0.4-2.9c-0.9-0.6-1.7-1.4-2.3-2.2l-2.9,0.6l-2-4.5l2.4-1.8c-0.2-1-0.2-2.1-0.1-3.2l-2.5-1.7l1.8-4.6l2.9,0.4
								c0.6-0.9,1.4-1.7,2.2-2.3l-0.6-2.9l4.5-2l1.8,2.4c1-0.2,2.1-0.2,3.2-0.1l1.7-2.5l4.6,1.8l-0.4,2.9c0.9,0.6,1.7,1.4,2.3,2.2
								l2.9-0.6l2,4.5l-2.4,1.8c0.2,1,0.2,2.1,0.1,3.2l2.5,1.7l-1.8,4.6L393.7,96.6L393.7,96.6z M388.7,91.6c1-2.7-0.3-5.8-3-6.8
								c-2.7-1-5.8,0.3-6.8,3c-1,2.7,0.3,5.8,3,6.8C384.6,95.6,387.7,94.3,388.7,91.6z"/>
						</g>
					</g>
				</g>
			</g>
		</g>
		<g>
			<g>
				<g>
					<g>
						<g>
							<path class="st4" d="M374.4,69.2c-1,1.4-2.2,2.6-3.5,3.6l0.9,4.6l-7,3.1l-2.8-3.7c-1.6,0.3-3.3,0.3-5,0.1l-2.6,3.9l-7.2-2.8
								l0.7-4.6c-1.4-1-2.6-2.2-3.6-3.5l-4.6,0.9l-3.1-7l3.7-2.8c-0.3-1.6-0.3-3.3-0.1-5l-3.9-2.6l2.8-7.2l4.6,0.7
								c1-1.4,2.2-2.6,3.5-3.6l-0.9-4.6l7-3.1l2.8,3.7c1.6-0.3,3.3-0.3,5-0.1l2.6-3.9l7.2,2.8l-0.7,4.6c1.4,1,2.6,2.2,3.6,3.5
								l4.6-0.9l3.1,7l-3.7,2.8c0.3,1.6,0.3,3.3,0.1,5l3.9,2.6l-2.8,7.2L374.4,69.2L374.4,69.2z M366.6,61.4c1.6-4.3-0.5-9-4.7-10.7
								c-4.3-1.6-9,0.5-10.7,4.7c-1.6,4.3,0.5,9,4.7,10.7C360.2,67.8,364.9,65.6,366.6,61.4z"/>
						</g>
					</g>
				</g>
			</g>
		</g>
	</g>
	<g>
		<g>
			<g>
				<g>
					<path class="st0" d="M303.8,31.1c0,0,0.2-0.2,0.5-0.6c0.4-0.4,0.9-0.9,1.5-1.5c1.3-1.3,3.1-3,5.1-4.9l0,0l0,0.3
						c-2-1.9-3.8-3.6-5.1-4.8c-0.6-0.6-1.1-1.1-1.5-1.5c-0.4-0.4-0.5-0.6-0.5-0.6c0,0,0.2,0.2,0.6,0.5c0.4,0.4,1,0.9,1.6,1.4
						c1.3,1.2,3.2,2.9,5.2,4.8l0.1,0.1l-0.1,0.1l0,0c-2,1.9-3.8,3.6-5.2,4.9c-0.6,0.6-1.2,1.1-1.6,1.4
						C304,30.9,303.8,31.1,303.8,31.1z"/>
				</g>
			</g>
		</g>
		<g>
			<g>
				<g>
					<path class="st0" d="M288.2,17.3c0,0-0.2,0.2-0.5,0.6c-0.4,0.4-0.9,0.9-1.5,1.5c-1.3,1.3-3.1,3-5.1,4.9l0,0l0-0.3
						c2,1.9,3.8,3.6,5.1,4.8c0.6,0.6,1.1,1.1,1.5,1.5c0.4,0.4,0.5,0.6,0.5,0.6c0,0-0.2-0.2-0.6-0.5c-0.4-0.4-1-0.9-1.6-1.4
						c-1.3-1.2-3.2-2.9-5.2-4.8l-0.1-0.1l0.1-0.1l0,0c2-1.9,3.8-3.6,5.2-4.9c0.6-0.6,1.2-1.1,1.6-1.4
						C287.9,17.5,288.1,17.3,288.2,17.3z"/>
				</g>
			</g>
		</g>
		<g>
			<g>
				<g>
					<path class="st0" d="M292.2,34.4c-0.1,0,1.5-4.6,3.7-10.3c2.1-5.6,3.9-10.2,4-10.2c0.1,0-1.5,4.6-3.7,10.3
						C294,29.8,292.3,34.4,292.2,34.4z"/>
				</g>
			</g>
		</g>
		<g>
			<g>
				<g>
					<path class="st0" d="M321.5,44.2c0,0,0-0.3,0-0.8c0-0.5,0-1.3,0-2.2c0-1.9,0-4.8,0-8.4c0-7.2,0-17.5-0.1-30l0.1,0.1
						c-14.5,0-32,0-50.8,0h0l0.2-0.2c0,15,0,29.1,0,41.4l-0.2-0.2c15.1,0,27.7,0.1,36.7,0.1c4.5,0,8,0,10.4,0c1.2,0,2.1,0,2.8,0
						c0.3,0,0.5,0,0.7,0C321.4,44.2,321.5,44.2,321.5,44.2s-0.1,0-0.2,0c-0.2,0-0.4,0-0.7,0c-0.6,0-1.5,0-2.7,0c-2.4,0-5.9,0-10.4,0
						c-8.9,0-21.6,0-36.8,0.1l-0.2,0l0-0.2c0-12.3,0-26.4,0-41.4V2.7h0.2h0c18.8,0,36.2,0,50.8,0l0.1,0l0,0.1
						c0,12.5-0.1,22.8-0.1,30.1c0,3.6,0,6.4,0,8.4c0,1,0,1.7,0,2.2C321.5,44,321.5,44.2,321.5,44.2z"/>
				</g>
			</g>
		</g>
		<g>
			<g>
				<g>
					<path class="st0" d="M321.9,9c0,0.1-11.5,0.2-25.6,0.2c-14.1,0-25.6-0.1-25.6-0.2c0-0.1,11.5-0.2,25.6-0.2
						C310.4,8.8,321.9,8.9,321.9,9z"/>
				</g>
			</g>
		</g>
		<g>
			<g>
				<g>
					<path class="st0" d="M274.9,6c0,0.4-0.3,0.7-0.7,0.7s-0.7-0.3-0.7-0.7s0.3-0.7,0.7-0.7S274.9,5.6,274.9,6z"/>
				</g>
			</g>
			<g>
				<g>
					<ellipse class="st0" cx="276.7" cy="6" rx="0.7" ry="0.7"/>
				</g>
			</g>
			<g>
				<g>
					<path class="st0" d="M279.9,6c0,0.4-0.3,0.7-0.7,0.7c-0.4,0-0.7-0.3-0.7-0.7s0.3-0.7,0.7-0.7C279.6,5.3,279.9,5.6,279.9,6z"/>
				</g>
			</g>
		</g>
	</g>
	<g>
		<g>
			<g>
				<g>
					<rect x="106" y="22.8" class="st0" width="117.4" height="47.7"/>
				</g>
			</g>
			<g>
				<g>
					<g>
						<path class="st0" d="M223.4,70.5c0,0,0-0.3,0-0.9c0-0.6,0-1.4,0-2.5c0-2.2,0-5.4,0-9.5c0-8.2,0-20.1-0.1-34.9l0.1,0.1
							c-29.9,0-71.4,0-117.4,0.1h0l0.2-0.2c0,16.7,0,32.8,0,47.7l-0.2-0.2c34,0,63.3,0.1,84.2,0.1c10.4,0,18.7,0,24.4,0
							c2.8,0,5,0,6.5,0c0.7,0,1.3,0,1.7,0C223.2,70.5,223.4,70.5,223.4,70.5s-0.2,0-0.6,0c-0.4,0-0.9,0-1.7,0c-1.5,0-3.7,0-6.5,0
							c-5.7,0-14,0-24.4,0c-20.9,0-50.2,0.1-84.3,0.1l-0.2,0v-0.2c0-14.9,0-31,0-47.7v-0.2h0.2h0c45.9,0,87.5,0,117.4,0.1l0.1,0
							l0,0.1c0,14.8-0.1,26.7-0.1,34.9c0,4.1,0,7.3,0,9.5c0,1.1,0,1.9,0,2.5C223.4,70.2,223.4,70.5,223.4,70.5z"/>
					</g>
				</g>
			</g>
		</g>
		<g>
			<g>
				<g>
					<path class="st5" d="M106.1,29.2c0,0,26.2,0,58.6,0c32.4,0,58.6,0,58.6,0s-26.2,0-58.6,0C132.3,29.2,106.1,29.2,106.1,29.2z"/>
				</g>
			</g>
		</g>
		<g>
			<g class="st2">
				<g>
					<path class="st6" d="M111,26.3c0,0.5-0.4,0.9-0.9,0.9c-0.5,0-0.9-0.4-0.9-0.9c0-0.5,0.4-0.9,0.9-0.9
						C110.6,25.5,111,25.9,111,26.3z"/>
				</g>
			</g>
			<g class="st2">
				<g>
					<path class="st6" d="M113.9,26.3c0,0.5-0.4,0.9-0.9,0.9s-0.9-0.4-0.9-0.9c0-0.5,0.4-0.9,0.9-0.9S113.9,25.9,113.9,26.3z"/>
				</g>
			</g>
			<g class="st2">
				<g>
					<circle class="st6" cx="116" cy="26.3" r="0.9"/>
				</g>
			</g>
		</g>
		<g>
			<g>
				<rect x="116" y="37" class="st1" width="28.4" height="28.4"/>
			</g>
		</g>
		<g>
			<g>
				<g>
					<g>
						<path class="st5" d="M215.2,44.6c0,0.1-14.6,0.2-32.6,0.2c-18,0-32.6-0.1-32.6-0.2c0-0.1,14.6-0.2,32.6-0.2
							C200.6,44.4,215.2,44.5,215.2,44.6z"/>
					</g>
				</g>
			</g>
			<g>
				<g>
					<g>
						<path class="st5" d="M215.2,50.3c0,0.1-14.6,0.2-32.6,0.2c-18,0-32.6-0.1-32.6-0.2c0-0.1,14.6-0.2,32.6-0.2
							C200.6,50.2,215.2,50.2,215.2,50.3z"/>
					</g>
				</g>
			</g>
			<g>
				<g>
					<g>
						<path class="st5" d="M192,56.1c0,0-0.1,0-0.4,0c-0.3,0-0.7,0-1.2,0c-1.1,0-2.6,0-4.5,0.1c-3.8,0-9.1,0-14.8,0.1
							c-5.8,0-11,0-14.8-0.1c-1.9,0-3.4,0-4.5-0.1c-0.5,0-0.9,0-1.2,0c-0.3,0-0.4,0-0.4,0c0,0,0.1,0,0.4,0c0.3,0,0.7,0,1.2,0
							c1.1,0,2.6,0,4.5-0.1c3.8,0,9.1,0,14.8-0.1c5.8,0,11,0,14.8,0.1c1.9,0,3.4,0,4.5,0.1c0.5,0,0.9,0,1.2,0
							C191.9,56.1,192,56.1,192,56.1z"/>
					</g>
				</g>
			</g>
		</g>
	</g>
</g>
<g id="Background_Simple" class="st7">
	<path class="st8" d="M433.4,94.4l-2.5-4.1c-20.1-32.6-56.2-52.4-94.4-50.4c-5.4,0.3-10.7,1-16,2.1c-35.2,7.4-65.8,33.7-78.5,67.3
		c-7.5,19.8-9.5,42.6-23.7,58.3c-18.4,20.4-49.7,21.1-77.2,20.2c-27.5-0.8-58.8-0.1-77.2,20.4c-11.5,12.9-15.1,31.1-14.2,48.3
		c2.5,45.6,34.6,86.3,75.5,106.6c40.9,20.3,89,22.1,133.8,13.2c62.7-12.5,122.3-46.8,158.2-99.7C453,223.7,462.1,151.6,433.4,94.4z"
		/>
	<path class="st8" d="M179.6,105.7c-9.9-9.9-27.3-16.8-39.1-9.3l1.7-0.9c-12.5,6.2-20.6,20.4-19.3,34.3c1.3,13.9,12,26.5,25.6,29.8
		c13.6,3.3,29-3.2,36-15.2C191.5,132.2,189.5,115.5,179.6,105.7z"/>
</g>
<g id="Floor">
	<g>
		<g>
			<path class="st1" d="M407,415.2c0,0.3-84.7,0.6-189.2,0.6c-104.5,0-189.2-0.2-189.2-0.6s84.7-0.6,189.2-0.6
				C322.3,414.6,407,414.8,407,415.2z"/>
		</g>
	</g>
</g>
<g id="Screens">
	<g>
		<g>
			<rect x="229.2" y="105.2" class="st1" width="140.1" height="114.2"/>
		</g>
		<g>
			<rect x="219.2" y="112.4" class="st9" width="140.1" height="114.2"/>
		</g>
		<g>
			<g>
				<rect x="205.5" y="120.4" class="st10" width="143.9" height="117.2"/>
			</g>
			<g>
				<g>
					<path class="st1" d="M349.3,237.6c0,0,0-0.7,0-2.2c0-1.4,0-3.5,0-6.3c0-5.5,0-13.5-0.1-23.7c0-20.5-0.1-49.7-0.1-85l0.2,0.2
						c-41.2,0-90.6,0-143.9,0h0l0.3-0.3c0,42.4,0,82.4,0,117.2l-0.2-0.2c42.8,0,78.7,0.1,104,0.1c12.6,0,22.6,0,29.4,0.1
						c3.4,0,6,0,7.8,0c0.9,0,1.5,0,2,0C349.1,237.6,349.3,237.6,349.3,237.6s-0.2,0-0.7,0c-0.5,0-1.1,0-2,0c-1.8,0-4.4,0-7.7,0
						c-6.8,0-16.7,0-29.4,0.1c-25.3,0-61.3,0.1-104.1,0.1l-0.2,0l0-0.2c0-34.8,0-74.8,0-117.2v-0.3h0.3h0c53.2,0,102.7,0,143.9,0
						l0.2,0l0,0.2c0,35.4-0.1,64.7-0.1,85.2c0,10.2,0,18.2-0.1,23.7c0,2.7,0,4.8,0,6.2C349.4,236.9,349.3,237.6,349.3,237.6z"/>
				</g>
			</g>
		</g>
		<g>
			<path class="st11" d="M223,137.3l-1.5,0.6l1.5,0.6v0.6l-2.2-0.8v-0.6l2.2-0.8V137.3z"/>
			<path class="st11" d="M226.7,136.2v3.2h-0.8v-1.3h-1.5v1.3h-0.8v-3.2h0.8v1.3h1.5v-1.3H226.7z"/>
			<path class="st11" d="M228.1,136.9h-1v-0.6h2.8v0.6h-1v2.6h-0.8V136.9z"/>
			<path class="st11" d="M233.2,139.5l0-1.9l-1,1.6h-0.3l-1-1.6v1.9h-0.7v-3.2h0.6l1.2,2l1.2-2h0.6l0,3.2H233.2z"/>
			<path class="st11" d="M234.7,136.2h0.8v2.6h1.6v0.6h-2.4V136.2z"/>
			<path class="st11" d="M239.6,137.6v0.6l-2.2,0.8v-0.6l1.5-0.6l-1.5-0.6v-0.6L239.6,137.6z"/>
		</g>
		<g>
			<path class="st11" d="M221.7,226.2l-1.5,0.6l1.5,0.6v0.6l-2.2-0.8v-0.6l2.2-0.8V226.2z"/>
			<path class="st11" d="M223.4,224.5h0.6l-1.5,4.4h-0.6L223.4,224.5z"/>
			<path class="st11" d="M227.2,225.1v3.2h-0.8V227h-1.5v1.3h-0.8v-3.2h0.8v1.3h1.5v-1.3H227.2z"/>
			<path class="st11" d="M228.6,225.7h-1v-0.6h2.8v0.6h-1v2.6h-0.8V225.7z"/>
			<path class="st11" d="M233.7,228.4l0-1.9l-1,1.6h-0.3l-1-1.6v1.9h-0.7v-3.2h0.6l1.2,2l1.2-2h0.6l0,3.2H233.7z"/>
			<path class="st11" d="M235.2,225.1h0.8v2.6h1.6v0.6h-2.4V225.1z"/>
			<path class="st11" d="M240.1,226.4v0.6l-2.2,0.8v-0.6l1.5-0.6l-1.5-0.6v-0.6L240.1,226.4z"/>
		</g>
		<g>
			<path class="st12" d="M224.6,146.2l-1.6,0.6l1.6,0.6v0.4l-2.1-0.8v-0.4l2.1-0.8V146.2z"/>
			<path class="st12" d="M228.2,145.2v3.2h-0.5V147h-1.9v1.4h-0.5v-3.2h0.5v1.4h1.9v-1.4H228.2z"/>
			<path class="st12" d="M231.5,148v0.4h-2.4v-3.2h2.3v0.4h-1.8v1h1.6v0.4h-1.6v1H231.5z"/>
			<path class="st12" d="M234.3,147.6h-1.7l-0.4,0.8h-0.5l1.5-3.2h0.5l1.5,3.2h-0.5L234.3,147.6z M234.2,147.3l-0.7-1.6l-0.7,1.6
				H234.2z"/>
			<path class="st12" d="M235.7,145.2h1.4c1,0,1.8,0.7,1.8,1.6c0,1-0.7,1.6-1.8,1.6h-1.4V145.2z M237,148c0.8,0,1.3-0.5,1.3-1.2
				c0-0.7-0.5-1.2-1.3-1.2h-0.9v2.4H237z"/>
			<path class="st12" d="M241.4,146.6v0.4l-2.1,0.8v-0.4l1.7-0.6l-1.7-0.6v-0.4L241.4,146.6z"/>
			<path class="st12" d="M233.2,157.3l-1.6,0.6l1.6,0.6v0.4l-2.1-0.8v-0.4l2.1-0.8V157.3z"/>
			<path class="st12" d="M234.6,156.7h-1.1v-0.4h2.7v0.4h-1.1v2.8h-0.5V156.7z"/>
			<path class="st12" d="M236.7,156.3h0.5v3.2h-0.5V156.3z"/>
			<path class="st12" d="M238.8,156.7h-1.1v-0.4h2.7v0.4h-1.1v2.8h-0.5V156.7z"/>
			<path class="st12" d="M240.9,156.3h0.5v2.8h1.8v0.4h-2.2V156.3z"/>
			<path class="st12" d="M246,159.2v0.4h-2.4v-3.2h2.3v0.4h-1.8v1h1.6v0.4h-1.6v1H246z"/>
			<path class="st12" d="M248.6,157.7v0.4l-2.1,0.8v-0.4l1.7-0.6l-1.7-0.6v-0.4L248.6,157.7z"/>
			<path class="st12" d="M289.9,157.3l-1.6,0.6l1.6,0.6v0.4l-2.1-0.8v-0.4l2.1-0.8V157.3z"/>
			<path class="st12" d="M291.6,155.7h0.4l-1.5,4.4h-0.4L291.6,155.7z"/>
			<path class="st12" d="M293.1,156.7H292v-0.4h2.7v0.4h-1.1v2.8h-0.5V156.7z"/>
			<path class="st12" d="M295.2,156.3h0.5v3.2h-0.5V156.3z"/>
			<path class="st12" d="M297.2,156.7h-1.1v-0.4h2.7v0.4h-1.1v2.8h-0.5V156.7z"/>
			<path class="st12" d="M299.3,156.3h0.5v2.8h1.8v0.4h-2.2V156.3z"/>
			<path class="st12" d="M304.4,159.2v0.4h-2.4v-3.2h2.3v0.4h-1.8v1h1.6v0.4h-1.6v1H304.4z"/>
			<path class="st12" d="M307.1,157.7v0.4L305,159v-0.4l1.7-0.6l-1.7-0.6v-0.4L307.1,157.7z"/>
			<path class="st12" d="M224.6,168.4l-1.6,0.6l1.6,0.6v0.4l-2.1-0.8v-0.4l2.1-0.8V168.4z"/>
			<path class="st12" d="M226.3,166.8h0.4l-1.5,4.4h-0.4L226.3,166.8z"/>
			<path class="st12" d="M229.8,167.4v3.2h-0.5v-1.4h-1.9v1.4H227v-3.2h0.5v1.4h1.9v-1.4H229.8z"/>
			<path class="st12" d="M233.2,170.3v0.4h-2.4v-3.2h2.3v0.4h-1.8v1h1.6v0.4h-1.6v1H233.2z"/>
			<path class="st12" d="M236,169.9h-1.7l-0.4,0.8h-0.5l1.5-3.2h0.5l1.5,3.2h-0.5L236,169.9z M235.8,169.5l-0.7-1.6l-0.7,1.6H235.8z
				"/>
			<path class="st12" d="M237.3,167.4h1.4c1,0,1.8,0.7,1.8,1.6c0,1-0.7,1.6-1.8,1.6h-1.4V167.4z M238.6,170.3c0.8,0,1.3-0.5,1.3-1.2
				c0-0.7-0.5-1.2-1.3-1.2h-0.9v2.4H238.6z"/>
			<path class="st12" d="M243,168.9v0.4l-2.1,0.8v-0.4l1.7-0.6l-1.7-0.6V168L243,168.9z"/>
		</g>
		<g>
			<path class="st12" d="M224.6,178.1l-1.6,0.6l1.6,0.6v0.4l-2.1-0.8v-0.4l2.1-0.8V178.1z"/>
			<path class="st12" d="M228.2,179.5c0,0.6-0.4,0.9-1.2,0.9h-1.5v-3.2h1.5c0.7,0,1.2,0.3,1.2,0.8c0,0.4-0.2,0.6-0.4,0.7
				C227.9,178.8,228.2,179,228.2,179.5z M225.9,177.5v1h1c0.5,0,0.7-0.2,0.7-0.5c0-0.3-0.3-0.5-0.7-0.5H225.9z M227.7,179.4
				c0-0.4-0.3-0.5-0.8-0.5h-1.1v1.1h1.1C227.4,180,227.7,179.8,227.7,179.4z"/>
			<path class="st12" d="M228.6,178.7c0-1,0.7-1.7,1.7-1.7c1,0,1.7,0.7,1.7,1.7c0,1-0.7,1.7-1.7,1.7
				C229.4,180.4,228.6,179.7,228.6,178.7z M231.6,178.7c0-0.7-0.5-1.2-1.3-1.2c-0.7,0-1.3,0.5-1.3,1.2c0,0.7,0.5,1.2,1.3,1.2
				C231.1,180,231.6,179.4,231.6,178.7z"/>
			<path class="st12" d="M232.8,177.1h1.4c1,0,1.8,0.7,1.8,1.6c0,1-0.7,1.6-1.8,1.6h-1.4V177.1z M234.1,179.9c0.8,0,1.3-0.5,1.3-1.2
				c0-0.7-0.5-1.2-1.3-1.2h-0.9v2.4H234.1z"/>
			<path class="st12" d="M237.7,179.2v1.1h-0.5v-1.1l-1.3-2.1h0.5l1,1.7l1-1.7h0.5L237.7,179.2z"/>
			<path class="st12" d="M241.4,178.5v0.4l-2.1,0.8v-0.4l1.7-0.6l-1.7-0.6v-0.4L241.4,178.5z"/>
			<path class="st12" d="M224.6,189.2l-1.6,0.6l1.6,0.6v0.4l-2.1-0.8v-0.4l2.1-0.8V189.2z"/>
			<path class="st12" d="M228.2,188.2v3.2h-0.5V190h-1.9v1.4h-0.5v-3.2h0.5v1.4h1.9v-1.4H228.2z"/>
			<path class="st12" d="M229.9,188.2v3.2h-0.5v-2.8h-0.7v-0.4H229.9z"/>
			<path class="st12" d="M232.8,189.6v0.4l-2.1,0.8v-0.4l1.7-0.6l-1.7-0.6v-0.4L232.8,189.6z"/>
			<path class="st12" d="M234.8,188.2h0.3v3h1.8v0.3h-2.2V188.2z"/>
			<path class="st12" d="M237.2,190.2c0-0.7,0.5-1.2,1.2-1.2c0.7,0,1.2,0.5,1.2,1.2c0,0.7-0.5,1.2-1.2,1.2
				C237.8,191.5,237.2,191,237.2,190.2z M239.4,190.2c0-0.6-0.4-1-0.9-1c-0.5,0-0.9,0.4-0.9,1c0,0.6,0.4,1,0.9,1
				C239,191.2,239.4,190.8,239.4,190.2z"/>
			<path class="st12" d="M241.6,189v0.3c0,0-0.1,0-0.1,0c-0.5,0-0.8,0.3-0.8,0.9v1.2h-0.3V189h0.3v0.5
				C240.8,189.2,241.2,189,241.6,189z"/>
			<path class="st12" d="M244.3,190.3h-2c0,0.5,0.4,0.8,1,0.8c0.3,0,0.6-0.1,0.7-0.3l0.2,0.2c-0.2,0.3-0.6,0.4-0.9,0.4
				c-0.8,0-1.3-0.5-1.3-1.2c0-0.7,0.5-1.2,1.2-1.2c0.7,0,1.2,0.5,1.2,1.2C244.3,190.3,244.3,190.3,244.3,190.3z M242.3,190.1h1.7
				c0-0.5-0.4-0.8-0.9-0.8C242.6,189.3,242.3,189.6,242.3,190.1z"/>
			<path class="st12" d="M249,190v1.4h-0.3v-1.4c0-0.5-0.3-0.8-0.7-0.8c-0.5,0-0.8,0.3-0.8,0.9v1.3h-0.3v-1.4c0-0.5-0.3-0.8-0.7-0.8
				c-0.5,0-0.8,0.3-0.8,0.9v1.3H245V189h0.3v0.4c0.2-0.3,0.5-0.5,0.9-0.5c0.4,0,0.7,0.2,0.9,0.5c0.2-0.3,0.5-0.5,1-0.5
				C248.6,189,249,189.3,249,190z"/>
			<path class="st12" d="M251,188.3c0-0.1,0.1-0.2,0.2-0.2s0.2,0.1,0.2,0.2c0,0.1-0.1,0.2-0.2,0.2C251.1,188.5,251,188.4,251,188.3z
				 M251.1,189h0.3v2.4h-0.3V189z"/>
			<path class="st12" d="M254.8,190.2c0,0.7-0.5,1.2-1.2,1.2c-0.4,0-0.7-0.2-0.9-0.5v1.4h-0.3V189h0.3v0.5c0.2-0.3,0.5-0.5,0.9-0.5
				C254.3,189,254.8,189.5,254.8,190.2z M254.5,190.2c0-0.6-0.4-1-0.9-1c-0.5,0-0.9,0.4-0.9,1c0,0.6,0.4,1,0.9,1
				C254.1,191.2,254.5,190.8,254.5,190.2z"/>
			<path class="st12" d="M255.2,191.2l0.1-0.3c0.2,0.2,0.5,0.3,0.9,0.3c0.5,0,0.7-0.2,0.7-0.4c0-0.6-1.6-0.1-1.6-1.1
				c0-0.4,0.3-0.7,1-0.7c0.3,0,0.7,0.1,0.9,0.2l-0.1,0.3c-0.2-0.1-0.5-0.2-0.7-0.2c-0.4,0-0.6,0.2-0.6,0.4c0,0.7,1.6,0.2,1.6,1.1
				c0,0.4-0.4,0.7-1,0.7C255.7,191.5,255.4,191.4,255.2,191.2z"/>
			<path class="st12" d="M260,189v2.4h-0.3V191c-0.2,0.3-0.5,0.5-0.9,0.5c-0.6,0-1-0.3-1-1V189h0.3v1.4c0,0.5,0.3,0.8,0.7,0.8
				c0.5,0,0.8-0.3,0.8-0.9V189H260z"/>
			<path class="st12" d="M264.9,190v1.4h-0.3v-1.4c0-0.5-0.3-0.8-0.7-0.8c-0.5,0-0.8,0.3-0.8,0.9v1.3h-0.3v-1.4
				c0-0.5-0.3-0.8-0.7-0.8c-0.5,0-0.8,0.3-0.8,0.9v1.3h-0.3V189h0.3v0.4c0.2-0.3,0.5-0.5,0.9-0.5c0.4,0,0.7,0.2,0.9,0.5
				c0.2-0.3,0.5-0.5,1-0.5C264.5,189,264.9,189.3,264.9,190z"/>
			<path class="st12" d="M269.2,188v3.4h-0.3V191c-0.2,0.3-0.5,0.5-0.9,0.5c-0.7,0-1.2-0.5-1.2-1.2c0-0.7,0.5-1.2,1.2-1.2
				c0.4,0,0.7,0.2,0.9,0.5V188H269.2z M268.9,190.2c0-0.6-0.4-1-0.9-1c-0.5,0-0.9,0.4-0.9,1c0,0.6,0.4,1,0.9,1
				C268.5,191.2,268.9,190.8,268.9,190.2z"/>
			<path class="st12" d="M269.9,190.2c0-0.7,0.5-1.2,1.2-1.2c0.7,0,1.2,0.5,1.2,1.2c0,0.7-0.5,1.2-1.2,1.2
				C270.4,191.5,269.9,191,269.9,190.2z M272.1,190.2c0-0.6-0.4-1-0.9-1c-0.5,0-0.9,0.4-0.9,1c0,0.6,0.4,1,0.9,1
				C271.7,191.2,272.1,190.8,272.1,190.2z"/>
			<path class="st12" d="M273.1,188h0.3v3.4h-0.3V188z"/>
			<path class="st12" d="M274.1,190.2c0-0.7,0.5-1.2,1.2-1.2c0.7,0,1.2,0.5,1.2,1.2c0,0.7-0.5,1.2-1.2,1.2
				C274.6,191.5,274.1,191,274.1,190.2z M276.2,190.2c0-0.6-0.4-1-0.9-1c-0.5,0-0.9,0.4-0.9,1c0,0.6,0.4,1,0.9,1
				C275.8,191.2,276.2,190.8,276.2,190.2z"/>
			<path class="st12" d="M278.4,189v0.3c0,0-0.1,0-0.1,0c-0.5,0-0.8,0.3-0.8,0.9v1.2h-0.3V189h0.3v0.5
				C277.7,189.2,278,189,278.4,189z"/>
			<path class="st12" d="M279.9,191.2l0.1-0.3c0.2,0.2,0.5,0.3,0.9,0.3c0.5,0,0.7-0.2,0.7-0.4c0-0.6-1.6-0.1-1.6-1.1
				c0-0.4,0.3-0.7,1-0.7c0.3,0,0.7,0.1,0.9,0.2l-0.1,0.3c-0.2-0.1-0.5-0.2-0.7-0.2c-0.4,0-0.6,0.2-0.6,0.4c0,0.7,1.6,0.2,1.6,1.1
				c0,0.4-0.4,0.7-1,0.7C280.5,191.5,280.1,191.4,279.9,191.2z"/>
			<path class="st12" d="M282.5,188.3c0-0.1,0.1-0.2,0.2-0.2s0.2,0.1,0.2,0.2c0,0.1-0.1,0.2-0.2,0.2
				C282.6,188.5,282.5,188.4,282.5,188.3z M282.5,189h0.3v2.4h-0.3V189z"/>
			<path class="st12" d="M285.1,191.3c-0.1,0.1-0.3,0.2-0.5,0.2c-0.5,0-0.7-0.3-0.7-0.7v-1.5h-0.4V189h0.4v-0.5h0.3v0.5h0.7v0.3
				h-0.7v1.5c0,0.3,0.1,0.4,0.4,0.4c0.1,0,0.3,0,0.4-0.1L285.1,191.3z"/>
			<path class="st12" d="M288.7,189.9v1.5h-0.3v-0.4c-0.1,0.3-0.4,0.4-0.8,0.4c-0.6,0-0.9-0.3-0.9-0.7c0-0.4,0.2-0.7,0.9-0.7h0.8
				v-0.1c0-0.4-0.2-0.6-0.7-0.6c-0.3,0-0.6,0.1-0.8,0.3l-0.1-0.2c0.2-0.2,0.6-0.3,1-0.3C288.4,189,288.7,189.3,288.7,189.9z
				 M288.4,190.7v-0.4h-0.8c-0.5,0-0.6,0.2-0.6,0.4c0,0.3,0.2,0.5,0.6,0.5C288,191.2,288.3,191,288.4,190.7z"/>
			<path class="st12" d="M293.6,190v1.4h-0.3v-1.4c0-0.5-0.3-0.8-0.7-0.8c-0.5,0-0.8,0.3-0.8,0.9v1.3h-0.3v-1.4
				c0-0.5-0.3-0.8-0.7-0.8c-0.5,0-0.8,0.3-0.8,0.9v1.3h-0.3V189h0.3v0.4c0.2-0.3,0.5-0.5,0.9-0.5c0.4,0,0.7,0.2,0.9,0.5
				c0.2-0.3,0.5-0.5,1-0.5C293.3,189,293.6,189.3,293.6,190z"/>
			<path class="st12" d="M296.7,190.3h-2c0,0.5,0.4,0.8,1,0.8c0.3,0,0.6-0.1,0.7-0.3l0.2,0.2c-0.2,0.3-0.6,0.4-0.9,0.4
				c-0.8,0-1.3-0.5-1.3-1.2c0-0.7,0.5-1.2,1.2-1.2c0.7,0,1.2,0.5,1.2,1.2C296.7,190.3,296.7,190.3,296.7,190.3z M294.6,190.1h1.7
				c0-0.5-0.4-0.8-0.9-0.8C295,189.3,294.7,189.6,294.6,190.1z"/>
			<path class="st12" d="M298.6,191.3c-0.1,0.1-0.3,0.2-0.5,0.2c-0.5,0-0.7-0.3-0.7-0.7v-1.5H297V189h0.4v-0.5h0.3v0.5h0.7v0.3h-0.7
				v1.5c0,0.3,0.1,0.4,0.4,0.4c0.1,0,0.3,0,0.4-0.1L298.6,191.3z"/>
			<path class="st12" d="M299.6,191.2c0,0.1,0,0.1-0.1,0.3l-0.2,0.6h-0.2l0.2-0.7c-0.1,0-0.2-0.1-0.2-0.2c0-0.1,0.1-0.3,0.2-0.3
				C299.5,191,299.6,191.1,299.6,191.2z"/>
			<path class="st12" d="M301.2,190.2c0-0.7,0.5-1.2,1.3-1.2c0.4,0,0.8,0.2,1,0.5l-0.2,0.2c-0.2-0.2-0.4-0.4-0.7-0.4
				c-0.5,0-0.9,0.4-0.9,1c0,0.6,0.4,1,0.9,1c0.3,0,0.5-0.1,0.7-0.4l0.2,0.2c-0.2,0.3-0.5,0.5-1,0.5
				C301.8,191.5,301.2,191,301.2,190.2z"/>
			<path class="st12" d="M303.8,190.2c0-0.7,0.5-1.2,1.2-1.2c0.7,0,1.2,0.5,1.2,1.2c0,0.7-0.5,1.2-1.2,1.2
				C304.3,191.5,303.8,191,303.8,190.2z M305.9,190.2c0-0.6-0.4-1-0.9-1c-0.5,0-0.9,0.4-0.9,1c0,0.6,0.4,1,0.9,1
				C305.6,191.2,305.9,190.8,305.9,190.2z"/>
			<path class="st12" d="M309.2,190v1.4h-0.3v-1.4c0-0.5-0.3-0.8-0.7-0.8c-0.5,0-0.9,0.3-0.9,0.9v1.3h-0.3V189h0.3v0.5
				c0.2-0.3,0.5-0.5,0.9-0.5C308.8,189,309.2,189.3,309.2,190z"/>
			<path class="st12" d="M309.7,191.2l0.1-0.3c0.2,0.2,0.5,0.3,0.9,0.3c0.5,0,0.7-0.2,0.7-0.4c0-0.6-1.6-0.1-1.6-1.1
				c0-0.4,0.3-0.7,1-0.7c0.3,0,0.7,0.1,0.9,0.2l-0.1,0.3c-0.2-0.1-0.5-0.2-0.7-0.2c-0.4,0-0.6,0.2-0.6,0.4c0,0.7,1.6,0.2,1.6,1.1
				c0,0.4-0.4,0.7-1,0.7C310.3,191.5,309.9,191.4,309.7,191.2z"/>
			<path class="st12" d="M314.5,190.3h-2c0,0.5,0.4,0.8,1,0.8c0.3,0,0.6-0.1,0.7-0.3l0.2,0.2c-0.2,0.3-0.6,0.4-0.9,0.4
				c-0.8,0-1.3-0.5-1.3-1.2c0-0.7,0.5-1.2,1.2-1.2s1.2,0.5,1.2,1.2C314.5,190.3,314.5,190.3,314.5,190.3z M312.4,190.1h1.7
				c0-0.5-0.4-0.8-0.9-0.8C312.8,189.3,312.5,189.6,312.4,190.1z"/>
			<path class="st12" d="M314.9,190.2c0-0.7,0.5-1.2,1.3-1.2c0.4,0,0.8,0.2,1,0.5l-0.2,0.2c-0.2-0.2-0.4-0.4-0.7-0.4
				c-0.5,0-0.9,0.4-0.9,1c0,0.6,0.4,1,0.9,1c0.3,0,0.5-0.1,0.7-0.4l0.2,0.2c-0.2,0.3-0.5,0.5-1,0.5
				C315.4,191.5,314.9,191,314.9,190.2z"/>
			<path class="st12" d="M319.1,191.3c-0.1,0.1-0.3,0.2-0.5,0.2c-0.5,0-0.7-0.3-0.7-0.7v-1.5h-0.4V189h0.4v-0.5h0.3v0.5h0.7v0.3
				h-0.7v1.5c0,0.3,0.1,0.4,0.4,0.4c0.1,0,0.3,0,0.4-0.1L319.1,191.3z"/>
			<path class="st12" d="M321.7,190.3h-2c0,0.5,0.4,0.8,1,0.8c0.3,0,0.6-0.1,0.7-0.3l0.2,0.2c-0.2,0.3-0.6,0.4-0.9,0.4
				c-0.8,0-1.3-0.5-1.3-1.2c0-0.7,0.5-1.2,1.2-1.2c0.7,0,1.2,0.5,1.2,1.2C321.7,190.3,321.7,190.3,321.7,190.3z M319.7,190.1h1.7
				c0-0.5-0.4-0.8-0.9-0.8C320,189.3,319.7,189.6,319.7,190.1z"/>
			<path class="st12" d="M323.7,191.3c-0.1,0.1-0.3,0.2-0.5,0.2c-0.5,0-0.7-0.3-0.7-0.7v-1.5H322V189h0.4v-0.5h0.3v0.5h0.7v0.3h-0.7
				v1.5c0,0.3,0.1,0.4,0.4,0.4c0.1,0,0.3,0,0.4-0.1L323.7,191.3z"/>
			<path class="st12" d="M326.5,189v2.4h-0.3V191c-0.2,0.3-0.5,0.5-0.9,0.5c-0.6,0-1-0.3-1-1V189h0.3v1.4c0,0.5,0.3,0.8,0.7,0.8
				c0.5,0,0.8-0.3,0.8-0.9V189H326.5z"/>
			<path class="st12" d="M329.5,190.3h-2c0,0.5,0.4,0.8,1,0.8c0.3,0,0.6-0.1,0.7-0.3l0.2,0.2c-0.2,0.3-0.6,0.4-0.9,0.4
				c-0.8,0-1.3-0.5-1.3-1.2c0-0.7,0.5-1.2,1.2-1.2c0.7,0,1.2,0.5,1.2,1.2C329.5,190.3,329.5,190.3,329.5,190.3z M327.5,190.1h1.7
				c0-0.5-0.4-0.8-0.9-0.8C327.8,189.3,327.5,189.6,327.5,190.1z"/>
			<path class="st12" d="M331.4,189v0.3c0,0-0.1,0-0.1,0c-0.5,0-0.8,0.3-0.8,0.9v1.2h-0.3V189h0.3v0.5
				C330.6,189.2,331,189,331.4,189z"/>
			<path class="st12" d="M224.5,195.5v1.5h-0.3v-0.4c-0.1,0.3-0.4,0.4-0.8,0.4c-0.6,0-0.9-0.3-0.9-0.7c0-0.4,0.2-0.7,0.9-0.7h0.8
				v-0.1c0-0.4-0.2-0.6-0.7-0.6c-0.3,0-0.6,0.1-0.8,0.3l-0.1-0.2c0.2-0.2,0.6-0.3,1-0.3C224.1,194.6,224.5,194.9,224.5,195.5z
				 M224.2,196.3v-0.4h-0.8c-0.5,0-0.6,0.2-0.6,0.4c0,0.3,0.2,0.5,0.6,0.5C223.8,196.8,224,196.6,224.2,196.3z"/>
			<path class="st12" d="M227.6,193.6v3.4h-0.3v-0.5c-0.2,0.3-0.5,0.5-0.9,0.5c-0.7,0-1.2-0.5-1.2-1.2c0-0.7,0.5-1.2,1.2-1.2
				c0.4,0,0.7,0.2,0.9,0.5v-1.5H227.6z M227.3,195.8c0-0.6-0.4-1-0.9-1c-0.5,0-0.9,0.4-0.9,1c0,0.6,0.4,1,0.9,1
				C226.9,196.8,227.3,196.4,227.3,195.8z"/>
			<path class="st12" d="M228.5,193.8c0-0.1,0.1-0.2,0.2-0.2c0.1,0,0.2,0.1,0.2,0.2c0,0.1-0.1,0.2-0.2,0.2
				C228.6,194,228.5,193.9,228.5,193.8z M228.5,194.6h0.3v2.4h-0.3V194.6z"/>
			<path class="st12" d="M232.3,195.8c0,0.7-0.5,1.2-1.2,1.2c-0.4,0-0.7-0.2-0.9-0.5v1.4h-0.3v-3.3h0.3v0.5c0.2-0.3,0.5-0.5,0.9-0.5
				C231.7,194.6,232.3,195.1,232.3,195.8z M231.9,195.8c0-0.6-0.4-1-0.9-1c-0.5,0-0.9,0.4-0.9,1c0,0.6,0.4,1,0.9,1
				C231.5,196.8,231.9,196.4,231.9,195.8z"/>
			<path class="st12" d="M232.9,193.8c0-0.1,0.1-0.2,0.2-0.2c0.1,0,0.2,0.1,0.2,0.2c0,0.1-0.1,0.2-0.2,0.2
				C233,194,232.9,193.9,232.9,193.8z M232.9,194.6h0.3v2.4h-0.3V194.6z"/>
			<path class="st12" d="M233.8,196.7l0.1-0.3c0.2,0.2,0.5,0.3,0.9,0.3c0.5,0,0.7-0.2,0.7-0.4c0-0.6-1.6-0.1-1.6-1.1
				c0-0.4,0.3-0.7,1-0.7c0.3,0,0.7,0.1,0.9,0.2l-0.1,0.3c-0.2-0.1-0.5-0.2-0.7-0.2c-0.4,0-0.6,0.2-0.6,0.4c0,0.7,1.6,0.2,1.6,1.1
				c0,0.4-0.4,0.7-1,0.7C234.4,197,234,196.9,233.8,196.7z"/>
			<path class="st12" d="M236.2,195.8c0-0.7,0.5-1.2,1.3-1.2c0.4,0,0.8,0.2,1,0.5l-0.2,0.2c-0.2-0.2-0.4-0.4-0.7-0.4
				c-0.5,0-0.9,0.4-0.9,1c0,0.6,0.4,1,0.9,1c0.3,0,0.5-0.1,0.7-0.4l0.2,0.2c-0.2,0.3-0.5,0.5-1,0.5
				C236.7,197,236.2,196.5,236.2,195.8z"/>
			<path class="st12" d="M239,193.8c0-0.1,0.1-0.2,0.2-0.2c0.1,0,0.2,0.1,0.2,0.2c0,0.1-0.1,0.2-0.2,0.2
				C239.1,194,239,193.9,239,193.8z M239.1,194.6h0.3v2.4h-0.3V194.6z"/>
			<path class="st12" d="M242.5,195.6v1.4h-0.3v-1.4c0-0.5-0.3-0.8-0.7-0.8c-0.5,0-0.9,0.3-0.9,0.9v1.3h-0.3v-2.4h0.3v0.5
				c0.2-0.3,0.5-0.5,0.9-0.5C242.1,194.6,242.5,194.9,242.5,195.6z"/>
			<path class="st12" d="M245.7,194.6v2.1c0,0.8-0.4,1.2-1.2,1.2c-0.4,0-0.9-0.1-1.1-0.4l0.2-0.3c0.2,0.2,0.6,0.3,1,0.3
				c0.6,0,0.9-0.3,0.9-0.9v-0.3c-0.2,0.3-0.6,0.5-1,0.5c-0.7,0-1.2-0.5-1.2-1.2s0.5-1.2,1.2-1.2c0.4,0,0.8,0.2,1,0.5v-0.5H245.7z
				 M245.4,195.7c0-0.5-0.4-0.9-0.9-0.9c-0.5,0-0.9,0.4-0.9,0.9c0,0.5,0.4,0.9,0.9,0.9C245,196.6,245.4,196.3,245.4,195.7z"/>
			<path class="st12" d="M250,195.9h-2c0,0.5,0.4,0.8,1,0.8c0.3,0,0.6-0.1,0.7-0.3l0.2,0.2c-0.2,0.3-0.6,0.4-0.9,0.4
				c-0.8,0-1.3-0.5-1.3-1.2c0-0.7,0.5-1.2,1.2-1.2c0.7,0,1.2,0.5,1.2,1.2C250,195.8,250,195.9,250,195.9z M247.9,195.7h1.7
				c0-0.5-0.4-0.8-0.9-0.8C248.3,194.8,248,195.2,247.9,195.7z"/>
			<path class="st12" d="M250.6,193.6h0.3v3.4h-0.3V193.6z"/>
			<path class="st12" d="M251.8,193.8c0-0.1,0.1-0.2,0.2-0.2s0.2,0.1,0.2,0.2c0,0.1-0.1,0.2-0.2,0.2
				C251.9,194,251.8,193.9,251.8,193.8z M251.9,194.6h0.3v2.4h-0.3V194.6z"/>
			<path class="st12" d="M254.4,196.9c-0.1,0.1-0.3,0.2-0.5,0.2c-0.5,0-0.7-0.3-0.7-0.7v-1.5h-0.4v-0.3h0.4V194h0.3v0.5h0.7v0.3
				h-0.7v1.5c0,0.3,0.1,0.4,0.4,0.4c0.1,0,0.3,0,0.4-0.1L254.4,196.9z"/>
			<path class="st12" d="M255.3,196.8c0,0.1,0,0.1-0.1,0.3l-0.2,0.6h-0.2l0.2-0.7c-0.1,0-0.2-0.1-0.2-0.2c0-0.1,0.1-0.3,0.2-0.3
				C255.2,196.5,255.3,196.6,255.3,196.8z"/>
			<path class="st12" d="M256.9,196.7l0.1-0.3c0.2,0.2,0.5,0.3,0.9,0.3c0.5,0,0.7-0.2,0.7-0.4c0-0.6-1.6-0.1-1.6-1.1
				c0-0.4,0.3-0.7,1-0.7c0.3,0,0.7,0.1,0.9,0.2l-0.1,0.3c-0.2-0.1-0.5-0.2-0.7-0.2c-0.4,0-0.6,0.2-0.6,0.4c0,0.7,1.6,0.2,1.6,1.1
				c0,0.4-0.4,0.7-1,0.7C257.5,197,257.1,196.9,256.9,196.7z"/>
			<path class="st12" d="M261.6,195.9h-2c0,0.5,0.4,0.8,1,0.8c0.3,0,0.6-0.1,0.7-0.3l0.2,0.2c-0.2,0.3-0.6,0.4-0.9,0.4
				c-0.8,0-1.3-0.5-1.3-1.2c0-0.7,0.5-1.2,1.2-1.2c0.7,0,1.2,0.5,1.2,1.2C261.7,195.8,261.6,195.9,261.6,195.9z M259.6,195.7h1.7
				c0-0.5-0.4-0.8-0.9-0.8C260,194.8,259.6,195.2,259.6,195.7z"/>
			<path class="st12" d="M264.5,193.6v3.4h-0.3v-0.5c-0.2,0.3-0.5,0.5-0.9,0.5c-0.7,0-1.2-0.5-1.2-1.2c0-0.7,0.5-1.2,1.2-1.2
				c0.4,0,0.7,0.2,0.9,0.5v-1.5H264.5z M264.2,195.8c0-0.6-0.4-1-0.9-1c-0.5,0-0.9,0.4-0.9,1c0,0.6,0.4,1,0.9,1
				C263.8,196.8,264.2,196.4,264.2,195.8z"/>
			<path class="st12" d="M268.9,193.6v3.4h-0.3v-0.5c-0.2,0.3-0.5,0.5-0.9,0.5c-0.7,0-1.2-0.5-1.2-1.2c0-0.7,0.5-1.2,1.2-1.2
				c0.4,0,0.7,0.2,0.9,0.5v-1.5H268.9z M268.6,195.8c0-0.6-0.4-1-0.9-1c-0.5,0-0.9,0.4-0.9,1c0,0.6,0.4,1,0.9,1
				C268.2,196.8,268.6,196.4,268.6,195.8z"/>
			<path class="st12" d="M269.7,193.8c0-0.1,0.1-0.2,0.2-0.2c0.1,0,0.2,0.1,0.2,0.2c0,0.1-0.1,0.2-0.2,0.2
				C269.9,194,269.7,193.9,269.7,193.8z M269.8,194.6h0.3v2.4h-0.3V194.6z"/>
			<path class="st12" d="M272.9,195.5v1.5h-0.3v-0.4c-0.1,0.3-0.4,0.4-0.8,0.4c-0.6,0-0.9-0.3-0.9-0.7c0-0.4,0.2-0.7,0.9-0.7h0.8
				v-0.1c0-0.4-0.2-0.6-0.7-0.6c-0.3,0-0.6,0.1-0.8,0.3l-0.1-0.2c0.2-0.2,0.6-0.3,1-0.3C272.6,194.6,272.9,194.9,272.9,195.5z
				 M272.6,196.3v-0.4h-0.8c-0.5,0-0.6,0.2-0.6,0.4c0,0.3,0.2,0.5,0.6,0.5C272.2,196.8,272.4,196.6,272.6,196.3z"/>
			<path class="st12" d="M277.8,195.6v1.4h-0.3v-1.4c0-0.5-0.3-0.8-0.7-0.8c-0.5,0-0.8,0.3-0.8,0.9v1.3h-0.3v-1.4
				c0-0.5-0.3-0.8-0.7-0.8c-0.5,0-0.8,0.3-0.8,0.9v1.3h-0.3v-2.4h0.3v0.4c0.2-0.3,0.5-0.5,0.9-0.5c0.4,0,0.7,0.2,0.9,0.5
				c0.2-0.3,0.5-0.5,1-0.5C277.4,194.6,277.8,194.9,277.8,195.6z"/>
			<path class="st12" d="M280.6,194.8l-1.6,0.6l1.6,0.6v0.4l-2.1-0.8v-0.4l2.1-0.8V194.8z"/>
			<path class="st12" d="M282.4,193.1h0.4l-1.5,4.4h-0.4L282.4,193.1z"/>
			<path class="st12" d="M285.9,193.8v3.2h-0.5v-1.4h-1.9v1.4h-0.5v-3.2h0.5v1.4h1.9v-1.4H285.9z"/>
			<path class="st12" d="M287.6,193.8v3.2h-0.5v-2.8h-0.7v-0.4H287.6z"/>
			<path class="st12" d="M290.5,195.2v0.4l-2.1,0.8V196l1.7-0.6l-1.7-0.6v-0.4L290.5,195.2z"/>
			<path class="st12" d="M224.6,205.9l-1.6,0.6l1.6,0.6v0.4l-2.1-0.8v-0.4l2.1-0.8V205.9z"/>
			<path class="st12" d="M228,206c0,0.7-0.5,1.1-1.4,1.1h-0.8v1h-0.5v-3.2h1.3C227.5,204.9,228,205.3,228,206z M227.5,206
				c0-0.5-0.3-0.7-0.9-0.7h-0.8v1.5h0.8C227.2,206.8,227.5,206.5,227.5,206z"/>
			<path class="st12" d="M230.6,206.3v0.4l-2.1,0.8v-0.4l1.7-0.6l-1.7-0.6v-0.4L230.6,206.3z"/>
			<path class="st12" d="M234.6,205.9l-1.6,0.6l1.6,0.6v0.4l-2.1-0.8v-0.4l2.1-0.8V205.9z"/>
			<path class="st12" d="M235.4,204.9h0.5v3.2h-0.5V204.9z"/>
			<path class="st12" d="M239.8,208.1l0-2.4l-1.2,2h-0.2l-1.2-2v2.4h-0.4v-3.2h0.4l1.4,2.3l1.3-2.3h0.4l0,3.2H239.8z"/>
			<path class="st12" d="M243.5,206.5h0.4v1.3c-0.3,0.3-0.8,0.4-1.2,0.4c-1,0-1.7-0.7-1.7-1.7c0-1,0.7-1.7,1.7-1.7
				c0.5,0,1,0.2,1.2,0.5l-0.3,0.3c-0.3-0.3-0.6-0.4-0.9-0.4c-0.8,0-1.3,0.5-1.3,1.2c0,0.7,0.5,1.2,1.3,1.2c0.3,0,0.5-0.1,0.8-0.2
				V206.5z"/>
			<path class="st12" d="M245.8,207.8l0.2-0.4c0.2,0.2,0.7,0.4,1.1,0.4c0.6,0,0.8-0.2,0.8-0.5c0-0.8-2-0.3-2-1.5
				c0-0.5,0.4-0.9,1.2-0.9c0.4,0,0.8,0.1,1,0.3l-0.2,0.4c-0.3-0.2-0.6-0.3-0.9-0.3c-0.6,0-0.8,0.2-0.8,0.5c0,0.8,2,0.3,2,1.5
				c0,0.5-0.4,0.9-1.3,0.9C246.5,208.2,246,208,245.8,207.8z"/>
			<path class="st12" d="M251.1,208.1l-0.7-1c-0.1,0-0.1,0-0.2,0h-0.8v1h-0.5v-3.2h1.3c0.8,0,1.4,0.4,1.4,1.1c0,0.5-0.3,0.9-0.7,1
				l0.8,1.1H251.1z M251.1,206c0-0.5-0.3-0.7-0.9-0.7h-0.8v1.5h0.8C250.8,206.8,251.1,206.5,251.1,206z"/>
			<path class="st12" d="M252,206.5c0-1,0.7-1.7,1.7-1.7c0.5,0,0.9,0.2,1.2,0.5l-0.3,0.3c-0.3-0.3-0.6-0.4-0.9-0.4
				c-0.7,0-1.3,0.5-1.3,1.2c0,0.7,0.5,1.2,1.3,1.2c0.4,0,0.7-0.1,0.9-0.4l0.3,0.3c-0.3,0.3-0.7,0.5-1.2,0.5
				C252.8,208.2,252,207.5,252,206.5z"/>
			<path class="st12" d="M255.5,205.8h2.1v0.4h-2.1V205.8z M255.5,206.9h2.1v0.4h-2.1V206.9z"/>
			<path class="st12" d="M259.4,204.9h0.4l0,1.3h-0.3L259.4,204.9z M260.2,204.9h0.4l0,1.3h-0.3L260.2,204.9z"/>
			<path class="st12" d="M261.4,204.9h0.5v2.8h1.8v0.4h-2.2V204.9z"/>
			<path class="st12" d="M263.8,206.9c0-0.7,0.5-1.3,1.3-1.3c0.7,0,1.3,0.5,1.3,1.3c0,0.7-0.5,1.3-1.3,1.3
				C264.4,208.2,263.8,207.6,263.8,206.9z M265.9,206.9c0-0.5-0.4-0.9-0.8-0.9c-0.5,0-0.8,0.3-0.8,0.9c0,0.5,0.4,0.9,0.8,0.9
				C265.6,207.8,265.9,207.4,265.9,206.9z"/>
			<path class="st12" d="M268.3,205.7v0.4c0,0-0.1,0-0.1,0c-0.5,0-0.8,0.3-0.8,0.8v1.2H267v-2.5h0.4v0.4
				C267.6,205.8,267.9,205.7,268.3,205.7z"/>
			<path class="st12" d="M271.1,207.1h-2c0.1,0.4,0.4,0.7,0.9,0.7c0.3,0,0.5-0.1,0.7-0.3l0.2,0.3c-0.2,0.3-0.6,0.4-1,0.4
				c-0.8,0-1.3-0.5-1.3-1.3c0-0.7,0.5-1.3,1.2-1.3c0.7,0,1.2,0.5,1.2,1.3C271.1,207,271.1,207,271.1,207.1z M269.1,206.7h1.6
				c0-0.4-0.4-0.7-0.8-0.7C269.4,206,269.1,206.3,269.1,206.7z"/>
			<path class="st12" d="M275.8,206.7v1.4h-0.4v-1.4c0-0.5-0.2-0.7-0.6-0.7c-0.4,0-0.7,0.3-0.7,0.8v1.3h-0.4v-1.4
				c0-0.5-0.2-0.7-0.6-0.7c-0.4,0-0.7,0.3-0.7,0.8v1.3h-0.4v-2.5h0.4v0.4c0.2-0.3,0.5-0.4,0.8-0.4c0.4,0,0.7,0.1,0.9,0.5
				c0.2-0.3,0.5-0.5,0.9-0.5C275.4,205.7,275.8,206,275.8,206.7z"/>
			<path class="st12" d="M277.8,204.9c0-0.2,0.1-0.3,0.3-0.3c0.2,0,0.3,0.1,0.3,0.3c0,0.2-0.1,0.3-0.3,0.3
				C277.9,205.2,277.8,205.1,277.8,204.9z M277.8,205.7h0.4v2.5h-0.4V205.7z"/>
			<path class="st12" d="M281.7,206.9c0,0.8-0.5,1.3-1.2,1.3c-0.3,0-0.7-0.1-0.9-0.4v1.3h-0.4v-3.4h0.4v0.4c0.2-0.3,0.5-0.4,0.9-0.4
				C281.1,205.7,281.7,206.2,281.7,206.9z M281.2,206.9c0-0.5-0.4-0.9-0.8-0.9c-0.5,0-0.8,0.3-0.8,0.9c0,0.5,0.4,0.9,0.8,0.9
				C280.9,207.8,281.2,207.4,281.2,206.9z"/>
			<path class="st12" d="M282,207.9l0.2-0.4c0.2,0.1,0.5,0.3,0.9,0.3c0.4,0,0.6-0.1,0.6-0.3c0-0.6-1.6-0.1-1.6-1.1
				c0-0.4,0.4-0.7,1-0.7c0.3,0,0.7,0.1,0.9,0.2l-0.2,0.4c-0.2-0.1-0.5-0.2-0.7-0.2c-0.4,0-0.6,0.1-0.6,0.3c0,0.6,1.6,0.1,1.6,1.1
				c0,0.4-0.4,0.7-1.1,0.7C282.6,208.2,282.2,208,282,207.9z"/>
			<path class="st12" d="M286.9,205.7v2.5h-0.4v-0.4c-0.2,0.3-0.5,0.4-0.8,0.4c-0.6,0-1.1-0.3-1.1-1.1v-1.4h0.4v1.4
				c0,0.5,0.2,0.7,0.7,0.7c0.5,0,0.8-0.3,0.8-0.8v-1.3H286.9z"/>
			<path class="st12" d="M291.8,206.7v1.4h-0.4v-1.4c0-0.5-0.2-0.7-0.6-0.7c-0.4,0-0.7,0.3-0.7,0.8v1.3h-0.4v-1.4
				c0-0.5-0.2-0.7-0.6-0.7c-0.4,0-0.7,0.3-0.7,0.8v1.3h-0.4v-2.5h0.4v0.4c0.2-0.3,0.5-0.4,0.8-0.4c0.4,0,0.7,0.1,0.9,0.5
				c0.2-0.3,0.5-0.5,0.9-0.5C291.4,205.7,291.8,206,291.8,206.7z"/>
			<path class="st12" d="M292.5,204.9h0.4l0,1.3h-0.3L292.5,204.9z M293.4,204.9h0.4l0,1.3h-0.3L293.4,204.9z"/>
			<path class="st12" d="M296.4,206.3v0.4l-2.1,0.8v-0.4l1.7-0.6l-1.7-0.6v-0.4L296.4,206.3z"/>
			<path class="st12" d="M299.1,205.9l-1.6,0.6l1.6,0.6v0.4l-2.1-0.8v-0.4l2.1-0.8V205.9z"/>
			<path class="st12" d="M300.8,204.2h0.4l-1.5,4.4h-0.4L300.8,204.2z"/>
			<path class="st12" d="M304.2,206c0,0.7-0.5,1.1-1.4,1.1H302v1h-0.5v-3.2h1.3C303.7,204.9,304.2,205.3,304.2,206z M303.7,206
				c0-0.5-0.3-0.7-0.9-0.7H302v1.5h0.8C303.4,206.8,303.7,206.5,303.7,206z"/>
			<path class="st12" d="M306.8,206.3v0.4l-2.1,0.8v-0.4l1.7-0.6l-1.7-0.6v-0.4L306.8,206.3z"/>
			<path class="st12" d="M224.6,217l-1.6,0.6l1.6,0.6v0.4l-2.1-0.8v-0.4l2.1-0.8V217z"/>
			<path class="st12" d="M226.3,215.4h0.4l-1.5,4.4h-0.4L226.3,215.4z"/>
			<path class="st12" d="M229.8,218.4c0,0.6-0.4,0.9-1.2,0.9H227V216h1.5c0.7,0,1.2,0.3,1.2,0.8c0,0.4-0.2,0.6-0.4,0.7
				C229.6,217.7,229.8,218,229.8,218.4z M227.5,216.4v1h1c0.5,0,0.7-0.2,0.7-0.5c0-0.3-0.3-0.5-0.7-0.5H227.5z M229.3,218.4
				c0-0.4-0.3-0.5-0.8-0.5h-1.1v1.1h1.1C229.1,218.9,229.3,218.7,229.3,218.4z"/>
			<path class="st12" d="M230.3,217.6c0-1,0.7-1.7,1.7-1.7c1,0,1.7,0.7,1.7,1.7s-0.7,1.7-1.7,1.7C231,219.3,230.3,218.6,230.3,217.6
				z M233.2,217.6c0-0.7-0.5-1.2-1.3-1.2c-0.7,0-1.3,0.5-1.3,1.2c0,0.7,0.5,1.2,1.3,1.2C232.7,218.9,233.2,218.4,233.2,217.6z"/>
			<path class="st12" d="M234.4,216h1.4c1,0,1.8,0.7,1.8,1.6s-0.7,1.6-1.8,1.6h-1.4V216z M235.8,218.9c0.8,0,1.3-0.5,1.3-1.2
				s-0.5-1.2-1.3-1.2h-0.9v2.4H235.8z"/>
			<path class="st12" d="M239.3,218.1v1.1h-0.5v-1.1l-1.3-2.1h0.5l1,1.7l1-1.7h0.5L239.3,218.1z"/>
			<path class="st12" d="M243,217.4v0.4l-2.1,0.8v-0.4l1.7-0.6l-1.7-0.6v-0.4L243,217.4z"/>
		</g>
		<g>
			<g>
				<path class="st1" d="M349.3,130.1c0,0.1-32.1,0.3-71.7,0.3c-39.6,0-71.7-0.1-71.7-0.3c0-0.1,32.1-0.3,71.7-0.3
					C317.3,129.9,349.3,130,349.3,130.1z"/>
			</g>
		</g>
		<g>
			<g>
				<path class="st1" d="M210.3,125c0,0.5-0.4,0.9-0.9,0.9c-0.5,0-0.9-0.4-0.9-0.9c0-0.5,0.4-0.9,0.9-0.9
					C209.9,124.1,210.3,124.5,210.3,125z"/>
			</g>
			<g>
				<circle class="st1" cx="212.9" cy="125" r="0.9"/>
			</g>
			<g>
				<path class="st1" d="M217.4,125c0,0.5-0.4,0.9-0.9,0.9c-0.5,0-0.9-0.4-0.9-0.9c0-0.5,0.4-0.9,0.9-0.9
					C217,124.1,217.4,124.5,217.4,125z"/>
			</g>
		</g>
		<g>
			<g>
				<path class="st13" d="M215.1,238.5c-0.1,0-0.3-24.3-0.3-54.3c0-30,0.1-54.3,0.3-54.3s0.3,24.3,0.3,54.3
					C215.4,214.2,215.2,238.5,215.1,238.5z"/>
			</g>
		</g>
	</g>
	<g>
		<g>
			<g>
				<g>
					<rect x="14.3" y="24.5" class="st11" width="59.3" height="42.2"/>
				</g>
			</g>
			<g>
				<g>
					<g>
						<path class="st10" d="M74.1,30.8c0,0.1-13.4,0.3-29.9,0.3c-16.5,0-29.9-0.1-29.9-0.3c0-0.1,13.4-0.3,29.9-0.3
							C60.7,30.5,74.1,30.7,74.1,30.8z"/>
					</g>
				</g>
			</g>
			<g>
				<g>
					<g>
						<path class="st10" d="M19.2,27.7c0,0.4-0.4,0.7-0.8,0.7c-0.4,0-0.8-0.3-0.8-0.7c0-0.4,0.4-0.7,0.8-0.7
							C18.8,27,19.2,27.3,19.2,27.7z"/>
					</g>
				</g>
				<g>
					<g>
						<path class="st10" d="M22.1,27.7c0,0.4-0.4,0.7-0.8,0.7s-0.8-0.3-0.8-0.7c0-0.4,0.4-0.7,0.8-0.7S22.1,27.3,22.1,27.7z"/>
					</g>
				</g>
				<g>
					<g>
						<ellipse class="st10" cx="24.2" cy="27.7" rx="0.8" ry="0.7"/>
					</g>
				</g>
			</g>
		</g>
		<text transform="matrix(1 0 0 1 34.6291 53.9345)" class="st14 st15 st16">JS</text>
	</g>
	<g>
		<g>
			<g>
				<rect x="336.5" y="186.1" class="st11" width="53.6" height="38.2"/>
			</g>
		</g>
		<g>
			<g>
				<path class="st10" d="M354.6,203.8v7.6h-1.8v-3.1h-3.4v3.1h-1.8v-7.6h1.8v3h3.4v-3H354.6z"/>
			</g>
			<g>
				<path class="st10" d="M358,205.2h-2.4v-1.4h6.6v1.4h-2.4v6.1H358V205.2z"/>
			</g>
			<g>
				<path class="st10" d="M363.1,203.8h1.8v6.1h3.8v1.4h-5.6V203.8z"/>
			</g>
			<g>
				<path class="st10" d="M376.5,211.4l0-4.5l-2.2,3.7h-0.8l-2.2-3.6v4.4h-1.6v-7.6h1.5l2.8,4.7l2.8-4.7h1.4l0,7.6H376.5z"/>
			</g>
		</g>
		<g>
			<g>
				<g>
					<g>
						<path class="st10" d="M390.5,191.7c0,0.1-12.1,0.2-27,0.2c-14.9,0-27-0.1-27-0.2c0-0.1,12.1-0.2,27-0.2
							C378.4,191.5,390.5,191.6,390.5,191.7z"/>
					</g>
				</g>
			</g>
			<g>
				<g>
					<g>
						<path class="st10" d="M340.9,188.9c0,0.3-0.3,0.6-0.7,0.6c-0.4,0-0.7-0.3-0.7-0.6c0-0.3,0.3-0.6,0.7-0.6
							C340.6,188.3,340.9,188.6,340.9,188.9z"/>
					</g>
				</g>
				<g>
					<g>
						<path class="st10" d="M343.5,188.9c0,0.3-0.3,0.6-0.7,0.6c-0.4,0-0.7-0.3-0.7-0.6c0-0.3,0.3-0.6,0.7-0.6
							C343.2,188.3,343.5,188.6,343.5,188.9z"/>
					</g>
				</g>
				<g>
					<g>
						<path class="st10" d="M346.2,188.9c0,0.3-0.3,0.6-0.7,0.6c-0.4,0-0.7-0.3-0.7-0.6c0-0.3,0.3-0.6,0.7-0.6
							C345.8,188.3,346.2,188.6,346.2,188.9z"/>
					</g>
				</g>
			</g>
		</g>
	</g>
	<g>
		<g>
			<g>
				<path class="st1" d="M221.2,77c0-4.3,3.3-7.5,7.7-7.5c2.1,0,4,0.7,5.3,2l-0.7,0.7c-1.3-1.2-2.8-1.8-4.5-1.8
					c-3.8,0-6.6,2.8-6.6,6.5c0,3.7,2.9,6.5,6.6,6.5c1.7,0,3.3-0.5,4.5-1.8l0.7,0.7c-1.3,1.4-3.2,2.1-5.3,2.1
					C224.5,84.5,221.2,81.3,221.2,77z"/>
			</g>
			<g>
				<path class="st1" d="M236.2,82.5l0.5-0.8c1,1.1,2.9,1.9,4.9,1.9c3,0,4.3-1.3,4.3-2.9c0-4.4-9.2-1.8-9.2-7.2
					c0-2.1,1.6-3.9,5.2-3.9c1.6,0,3.3,0.5,4.5,1.3l-0.4,0.9c-1.2-0.8-2.7-1.2-4.1-1.2c-2.9,0-4.2,1.3-4.2,3c0,4.4,9.2,1.8,9.2,7.2
					c0,2.1-1.7,3.9-5.3,3.9C239.3,84.5,237.2,83.7,236.2,82.5z"/>
			</g>
			<g>
				<path class="st1" d="M249,82.5l0.5-0.8c1,1.1,2.9,1.9,4.9,1.9c3,0,4.3-1.3,4.3-2.9c0-4.4-9.2-1.8-9.2-7.2c0-2.1,1.6-3.9,5.2-3.9
					c1.6,0,3.3,0.5,4.5,1.3l-0.4,0.9c-1.2-0.8-2.7-1.2-4.1-1.2c-2.9,0-4.2,1.3-4.2,3c0,4.4,9.2,1.8,9.2,7.2c0,2.1-1.7,3.9-5.3,3.9
					C252.2,84.5,250.1,83.7,249,82.5z"/>
			</g>
		</g>
		<g>
			<g>
				<g>
					<g>
						<path class="st17" d="M272.3,96.3c0,0,0-0.3,0-0.8c0-0.5,0-1.3,0-2.3c0-2,0-4.9-0.1-8.6c0-7.4-0.1-18-0.1-31l0.2,0.2
							c-18,0-41,0-65.9,0.1h0l0.3-0.3c0,15.1,0,29.5,0,42.6l-0.2-0.2c19.3,0,35.8,0.1,47.4,0.1c5.8,0,10.4,0,13.6,0.1
							c1.6,0,2.8,0,3.6,0c0.4,0,0.7,0,0.9,0C272.2,96.3,272.3,96.3,272.3,96.3c0,0-0.1,0-0.3,0c-0.2,0-0.5,0-0.9,0c-0.8,0-2,0-3.6,0
							c-3.2,0-7.8,0-13.5,0.1c-11.7,0-28.2,0.1-47.6,0.1l-0.2,0l0-0.2c0-13.1,0-27.4,0-42.6l0-0.3h0.3h0c24.9,0,47.8,0,65.9,0.1
							l0.2,0l0,0.2c0,13-0.1,23.7-0.1,31.1c0,3.7,0,6.5-0.1,8.5c0,1,0,1.7,0,2.2C272.3,96,272.3,96.3,272.3,96.3z"/>
					</g>
				</g>
			</g>
			<g>
				<g>
					<g>
						<path class="st18" d="M272.3,60c0,0.1-14.8,0.3-33,0.3c-18.2,0-33-0.1-33-0.3c0-0.1,14.8-0.3,33-0.3
							C257.6,59.8,272.3,59.9,272.3,60z"/>
					</g>
				</g>
			</g>
			<g>
				<g>
					<g>
						<path class="st18" d="M211.3,56.9c0,0.4-0.4,0.7-0.8,0.7c-0.4,0-0.8-0.3-0.8-0.7s0.4-0.7,0.8-0.7
							C211,56.2,211.3,56.5,211.3,56.9z"/>
					</g>
				</g>
				<g>
					<g>
						<path class="st18" d="M214.2,56.9c0,0.4-0.4,0.7-0.8,0.7c-0.4,0-0.8-0.3-0.8-0.7s0.4-0.7,0.8-0.7
							C213.9,56.2,214.2,56.5,214.2,56.9z"/>
					</g>
				</g>
				<g>
					<g>
						<path class="st18" d="M217.2,56.9c0,0.4-0.4,0.7-0.8,0.7s-0.8-0.3-0.8-0.7s0.4-0.7,0.8-0.7S217.2,56.5,217.2,56.9z"/>
					</g>
				</g>
			</g>
		</g>
	</g>
	<text transform="matrix(1 0 0 1 249.5805 159.5651)" class="st19 st20 st21">Fanis Mahmalat</text>
</g>
<g id="Character">
	<g>
		<g>
			<g>
				<g>
					<g>
						<g>
							<path class="st22" d="M82,241.7l26.1,88.2c1.2,3.9,4.8,6.6,8.8,6.6l106,0.3c5.6,0,10.1-4.7,9.8-10.3l0,0
								c-0.3-5.2-4.6-9.3-9.8-9.3h-40.5L150,226.7H93.2C85.4,226.7,79.8,234.2,82,241.7z"/>
						</g>
					</g>
				</g>
				<g>
					<g>
						<g>
							<g>
								<path class="st1" d="M171.7,324.4c0,0.2-10.8,0.4-24.1,0.4c-13.3,0-24.1-0.2-24.1-0.4c0-0.2,10.8-0.4,24.1-0.4
									C160.9,324,171.7,324.2,171.7,324.4z"/>
							</g>
						</g>
					</g>
				</g>
				<g>
					<g>
						<g>
							<g>
								<path class="st1" d="M89.8,229.5c0.2-0.1,7.4,21,16.1,47.2c8.7,26.1,15.6,47.3,15.4,47.4c-0.2,0.1-7.4-21-16.1-47.2
									C96.5,250.8,89.6,229.6,89.8,229.5z"/>
							</g>
						</g>
					</g>
				</g>
			</g>
			<g>
				<polygon class="st22" points="167.3,414.8 160.8,414.7 160.8,336.5 167.3,336.5 				"/>
			</g>
			<g>
				<polygon class="st22" points="134,414.5 194.1,414.5 166.9,405 160.4,405 				"/>
			</g>
		</g>
		<g>
			<g>
				<g>
					<g>
						<g>
							<g>
								<g>
									<g>
										<path class="st11" d="M118.8,206.5l9.9,49.7l-1.8,37.3l66.9-11.1l-2.6-32.6l-0.1-27l16.4,31.8l12.8-24.7L197,187.5l0,0
											c-4.3-4.4-9.3-7.7-15.3-9.9c-2.9-1.1-6-1.7-9.6-1.8v0c-7.7,2.4-15.4,2.4-23.2,0c-0.9,0.1-2.2,0.2-3.9,0.4
											c-0.1,0-0.2,0-0.3,0c-14.2,1.7-25,13.5-25.8,27.8L118.8,206.5z"/>
									</g>
								</g>
							</g>
						</g>
					</g>
					<g>
						<g>
							<g>
								<path class="st11" d="M145,176.2c0,0-27.5,0.2-30.9,29.2l-0.5,21.3l23.7-0.2L145,176.2z"/>
							</g>
						</g>
					</g>
				</g>
			</g>
			<g>
				<g>
					<g>
						<g>
							<path class="st14" d="M210.7,213.6c0,0.2-21.6,0.4-48.3,0.4c-26.7,0-48.3-0.2-48.3-0.4c0-0.2,21.6-0.4,48.3-0.4
								C189.1,213.2,210.7,213.3,210.7,213.6z"/>
						</g>
					</g>
				</g>
			</g>
			<g>
				<g>
					<g>
						<g>
							<path class="st14" d="M210.7,218.2c0,0.2-21.6,0.4-48.3,0.4c-26.7,0-48.3-0.2-48.3-0.4c0-0.2,21.6-0.4,48.3-0.4
								C189.1,217.8,210.7,217.9,210.7,218.2z"/>
						</g>
					</g>
				</g>
			</g>
			<g>
				<g>
					<g>
						<g>
							<path class="st14" d="M209.1,209.7c0,0.2-21.3,0.4-47.5,0.4c-26.2,0-47.5-0.2-47.5-0.4c0-0.2,21.3-0.4,47.5-0.4
								C187.9,209.4,209.1,209.5,209.1,209.7z"/>
						</g>
					</g>
				</g>
			</g>
			<g>
				<g>
					<g>
						<g>
							<path class="st1" d="M190.8,254.5c-0.2,0-0.1-11.8,0.2-26.3c0.3-14.5,0.7-26.3,1-26.3c0.2,0,0.1,11.8-0.2,26.3
								C191.4,242.8,191,254.5,190.8,254.5z"/>
						</g>
					</g>
				</g>
			</g>
			<g>
				<g>
					<g>
						<path class="st23" d="M181.4,235.4c0,0,13,0.9,15.3,4.4c2.3,3.4,5.9,13.2,4.6,13.3c-1.4,0.1-2.3-0.7-2.3-0.7l-3.6-6.3
							c0,0,0.6,6.1-1.6,6.2c-2.1,0.1-12.7,2.2-12.7,2.2L181.4,235.4z"/>
					</g>
				</g>
			</g>
			<g>
				<g>
					<g>
						<path class="st11" d="M113.7,221.1l0,33.5c0.4,7.8,7.8,13.4,15.4,11.8l52.4-10.8l-0.1-21.5l-45.2,8.7l-0.6-22.7L113.7,221.1z"
							/>
					</g>
				</g>
			</g>
			<g>
				<g>
					<g>
						<g>
							<path class="st1" d="M143.6,263.6c0,0,0.2-0.1,0.7-0.2c0.5-0.1,1.2-0.3,2-0.5c1.8-0.4,4.4-0.9,7.7-1.6
								c6.7-1.4,16.1-3.3,27.3-5.6l-0.3,0.3c0-6.7,0-14.2,0-22.1l0.4,0.4c-3,0.6-6.1,1.2-9.2,1.8c-13.2,2.5-25.6,4.9-36,6.9
								l-0.4,0.1l0-0.4c0.3-10,0.6-18.3,0.8-24.2c0.1-2.9,0.2-5.1,0.3-6.7c0-0.7,0.1-1.3,0.1-1.8c0-0.4,0.1-0.6,0.1-0.6
								c0,0,0,0.2,0,0.6c0,0.5,0,1,0,1.8c0,1.6-0.1,3.9-0.1,6.8c-0.1,5.9-0.3,14.2-0.6,24.2l-0.4-0.3c10.4-2,22.8-4.4,36-7
								c3.2-0.6,6.3-1.2,9.2-1.8l0.4-0.1l0,0.4c0,7.9,0,15.3,0,22.1l0,0.3l-0.3,0.1c-11.2,2.2-20.6,4-27.3,5.3
								c-3.3,0.6-5.9,1.1-7.7,1.4c-0.9,0.1-1.5,0.3-2.1,0.4C143.8,263.6,143.6,263.7,143.6,263.6z"/>
						</g>
					</g>
				</g>
			</g>
			<g>
				<g>
					<g>
						<g>
							<path class="st1" d="M173.7,176.2c0,0,0.1,0.2,0.2,0.5c0.1,0.3,0.3,0.8,0.4,1.5c0.3,1.3,0.4,3.3-0.2,5.6
								c-0.6,2.3-2.2,4.9-4.5,7c-2.4,2.2-5.8,3.6-9.5,3.6c-3.7,0-7.2-1.5-9.4-3.8c-2.2-2.3-3.2-5.2-3.5-7.6
								c-0.3-2.4,0.2-4.4,0.7-5.6c0.2-0.6,0.5-1.1,0.7-1.4c0.2-0.3,0.3-0.5,0.3-0.4c0.1,0-0.3,0.7-0.7,1.9c-0.4,1.2-0.7,3.1-0.4,5.4
								c0.3,2.3,1.3,5,3.5,7.2c2.1,2.2,5.4,3.6,8.9,3.6c3.5,0,6.8-1.3,9.1-3.4c2.3-2,3.8-4.4,4.5-6.7c0.7-2.2,0.6-4.2,0.5-5.4
								C173.8,176.9,173.6,176.2,173.7,176.2z"/>
						</g>
					</g>
				</g>
			</g>
			<g>
				<g>
					<g>
						<g>
							<path class="st14" d="M176.2,257.3c-0.1,0-0.1-1.3,0-3.3c0.1-2,0.2-4.8,0.2-7.9c0-3.1,0-5.9-0.1-7.9c-0.1-2-0.1-3.3,0-3.3
								c0.1,0,0.3,1.2,0.5,3.3c0.2,2,0.3,4.9,0.3,8c0,3.1-0.2,5.9-0.4,8C176.5,256.1,176.3,257.3,176.2,257.3z"/>
						</g>
					</g>
				</g>
			</g>
			<g>
				<g>
					<g>
						<g>
							<path class="st14" d="M173.5,257.9c-0.1,0-0.1-1.3-0.1-3.3c0-2.3,0.1-5,0.1-7.9c0-2.9,0-5.6,0-7.9c0-2,0-3.3,0.1-3.3
								c0.1,0,0.3,1.2,0.4,3.3c0.1,2,0.2,4.8,0.2,7.9c0,3.1-0.1,5.9-0.3,7.9C173.8,256.6,173.6,257.9,173.5,257.9z"/>
						</g>
					</g>
				</g>
			</g>
		</g>
		<g>
			<g>
				<g>
					<g>
						<path class="st11" d="M226,391l9.9,27.3l14.1,19.3c1,1.4,0.6,3.4-0.8,4.3l0,0c-0.8,0.5-1.8,0.6-2.7,0.2
							c-5.7-2.4-26.5-11.1-27.1-13.1c-0.7-2.4-14.1-31.7-14.1-31.7L226,391z"/>
					</g>
				</g>
				<g class="st24">
					<g>
						<path class="st10" d="M249.1,441.9l-30.5-14.7l0.4,1.1c0.4,1,1.1,1.8,2,2.3c2.5,1.3,9.5,4.9,25.2,11.5
							C247.2,442.5,248.3,442.4,249.1,441.9L249.1,441.9z"/>
					</g>
				</g>
				<g class="st24">
					<g>
						<g>
							<path class="st10" d="M220.7,416.2c0.9,0.2,1.5,1.1,1.3,2c-0.2,0.9-1.1,1.5-2,1.3c-0.9-0.2-1.6-1.3-1.4-2.1
								c0.3-0.8,1.4-1.5,2.2-1.1"/>
						</g>
					</g>
				</g>
				<g>
					<g>
						<g>
							<path class="st1" d="M238.3,432.4c0.2,0,0.2-1.6,1.6-3c1.3-1.4,2.9-1.6,2.9-1.8c0-0.1-0.4-0.2-1.1,0
								c-0.7,0.2-1.5,0.6-2.3,1.4c-0.7,0.8-1.1,1.7-1.2,2.4C238.1,432,238.2,432.5,238.3,432.4z"/>
						</g>
					</g>
				</g>
				<g>
					<g>
						<g>
							<path class="st1" d="M241.7,435.3c0.2,0.1,0.7-1.2,1.9-2.1c1.2-1,2.5-1.2,2.5-1.4c0-0.2-1.5-0.2-2.9,0.9
								C241.8,433.8,241.5,435.3,241.7,435.3z"/>
						</g>
					</g>
				</g>
				<g>
					<g>
						<g>
							<path class="st1" d="M232.9,429.2c0.2,0.1,1-1.8,2.8-3.4c1.8-1.7,3.7-2.3,3.6-2.5c0-0.2-2.2,0.2-4.1,2
								C233.3,427.1,232.8,429.2,232.9,429.2z"/>
						</g>
					</g>
				</g>
				<g>
					<g>
						<g>
							<path class="st1" d="M229.2,421.2c0.1,0.1,1.4-1.1,3.3-1.9c1.9-0.9,3.6-1,3.6-1.1c0-0.2-1.8-0.3-3.9,0.6
								C230.2,419.6,229.1,421.1,229.2,421.2z"/>
						</g>
					</g>
				</g>
				<g>
					<g>
						<g>
							<path class="st1" d="M226.1,413.2c0.1,0.1,1.3-1.4,3.4-2.1c2.1-0.8,3.9-0.3,3.9-0.5c0-0.1-0.4-0.3-1.2-0.4
								c-0.8-0.1-1.9-0.1-3,0.3c-1.1,0.4-2,1-2.5,1.6C226.2,412.7,226.1,413.2,226.1,413.2z"/>
						</g>
					</g>
				</g>
				<g>
					<g>
						<g>
							<path class="st1" d="M228.9,409.7c0,0,0-0.4-0.4-1c-0.3-0.6-0.9-1.5-1.9-2.4c-0.5-0.4-1-0.9-1.9-1c-0.4,0-1,0.3-1.2,0.7
								c-0.2,0.5-0.1,1,0,1.4c0.7,1.7,2.8,2.8,4.8,2.3c2-0.5,3.3-2.3,3.5-4.1c0-0.4,0-1-0.4-1.3c-0.4-0.4-1-0.4-1.4-0.1
								c-0.8,0.4-1.1,1.1-1.4,1.6c-0.6,1.1-0.9,2.1-1,2.8c-0.1,0.7-0.1,1.1-0.1,1.1c0.1,0,0.2-1.6,1.5-3.7c0.3-0.5,0.7-1.1,1.3-1.4
								c0.3-0.1,0.6-0.1,0.7,0.1c0.2,0.2,0.3,0.5,0.2,0.9c-0.2,1.5-1.4,3.1-3.1,3.5c-1.7,0.4-3.6-0.5-4.1-1.9
								c-0.1-0.3-0.2-0.7-0.1-1c0.1-0.3,0.3-0.4,0.6-0.4c0.6,0,1.2,0.4,1.7,0.8C228.3,408.2,228.8,409.7,228.9,409.7z"/>
						</g>
					</g>
				</g>
			</g>
		</g>
		<g>
			<g>
				<g>
					<path class="st11" d="M267.8,383.9l-0.9,22.2c0,0,22.2,8.3,22.5,12.4l-43-0.1l-0.1-34.6L267.8,383.9z"/>
				</g>
				<g class="st24">
					<g>
						<path class="st10" d="M253.6,404.1c-0.8,0.2-1.4,1.2-1.2,2c0.2,0.8,1.1,1.4,2,1.2c0.8-0.2,1.6-1.3,1.3-2.1
							c-0.3-0.8-1.4-1.5-2.2-1"/>
					</g>
				</g>
				<g class="st24">
					<path class="st10" d="M246.4,418.3l0-3.5l41.4,1.4c0,0,1.9,0.8,1.7,2.2L246.4,418.3z"/>
				</g>
				<g>
					<g>
						<path class="st1" d="M267.6,405.8c0,0.2-1.1,0.3-2.1,1c-1.1,0.6-1.6,1.6-1.8,1.5c-0.2,0,0.1-1.3,1.4-2.1
							C266.4,405.4,267.7,405.6,267.6,405.8z"/>
					</g>
				</g>
				<g>
					<g>
						<path class="st1" d="M272.1,407.7c0,0.2-0.9,0.6-1.6,1.4c-0.7,0.9-0.9,1.8-1.1,1.8c-0.2,0-0.3-1.2,0.6-2.3
							C270.9,407.6,272.1,407.5,272.1,407.7z"/>
					</g>
				</g>
				<g>
					<g>
						<path class="st1" d="M274.7,413.1c-0.2,0-0.5-1,0.1-2.2c0.5-1.2,1.5-1.6,1.6-1.4c0.1,0.2-0.5,0.8-1,1.7
							C275,412.2,274.9,413.1,274.7,413.1z"/>
					</g>
				</g>
				<g>
					<g>
						<path class="st1" d="M267.3,400.7c-0.1,0.2-1.1-0.1-2.2,0c-1.2,0.1-2.1,0.4-2.2,0.3c-0.1-0.2,0.8-0.9,2.2-1
							C266.4,399.9,267.4,400.6,267.3,400.7z"/>
					</g>
				</g>
			</g>
			<g class="st2">
				<polygon points="267.6,388.3 267.5,392.2 246.3,392 246.3,388.4 				"/>
			</g>
			<g>
				<g>
					<path class="st1" d="M267.3,396.3c0,0.1-0.8,0.2-2.2,0c-0.7-0.1-1.4-0.3-2.3-0.7c-0.4-0.2-0.8-0.4-1.2-0.7
						c-0.2-0.1-0.4-0.3-0.6-0.5c-0.2-0.2-0.4-0.8-0.1-1.1c0.2-0.3,0.6-0.5,0.9-0.5c0.3,0,0.6,0.1,0.8,0.1c0.5,0.1,0.9,0.3,1.3,0.5
						c0.8,0.4,1.5,0.9,2,1.3c1,0.9,1.3,1.7,1.3,1.8c-0.1,0.1-0.6-0.6-1.6-1.4c-0.5-0.4-1.2-0.8-1.9-1.1c-0.4-0.2-0.8-0.3-1.2-0.4
						c-0.5-0.1-0.8-0.1-1,0.1c0,0.1,0,0.1,0,0.2c0.1,0.1,0.3,0.2,0.5,0.4c0.4,0.2,0.8,0.5,1.1,0.7c0.7,0.4,1.5,0.6,2.1,0.8
						C266.5,396.1,267.4,396.1,267.3,396.3z"/>
				</g>
			</g>
			<g>
				<g>
					<path class="st1" d="M267.1,396.6c-0.1,0-0.5-0.7-0.6-2.1c0-0.7,0-1.5,0.3-2.4c0.1-0.4,0.3-0.9,0.6-1.3c0.3-0.4,0.6-1,1.4-1.1
						c0.4,0,0.8,0.3,0.9,0.6c0.1,0.3,0.2,0.5,0.2,0.8c0.1,0.5,0.1,1,0,1.5c-0.1,0.9-0.5,1.7-0.9,2.2c-0.8,1.1-1.7,1.4-1.7,1.3
						c-0.1-0.1,0.7-0.5,1.3-1.6c0.3-0.5,0.6-1.2,0.7-2c0-0.4,0-0.8,0-1.2c-0.1-0.5-0.2-0.8-0.4-0.8c-0.2,0-0.6,0.3-0.8,0.7
						c-0.2,0.4-0.4,0.8-0.5,1.2c-0.3,0.8-0.4,1.5-0.4,2.1C267,395.7,267.2,396.5,267.1,396.6z"/>
				</g>
			</g>
		</g>
		<g>
			<g>
				<g>
					<g>
						<g>
							<path class="st1" d="M246.3,277.6c-25.4,2.6-59.1,6.1-59.1,6.1l4.6,41.4c0,0,49.5-13.1,49.2-12c-0.4,1.1,2.3,88.1,2.3,88.1
								h29.8l0.6-98.5C273.8,287.7,261.1,276.1,246.3,277.6z"/>
						</g>
					</g>
				</g>
				<g>
					<g>
						<g>
							<path class="st1" d="M126.3,294.3v12.8c0,8.7,10,18,18.7,18h6.8c5.3,0,13.7-3.9,18-7l2.6-1.9l31.1,96.2
								c0,0,35.5-6.4,35.5-7.5c0-1.1-24.1-78.8-35.2-114.9c-4.5-14.7-20.3-23.3-34.9-18.3c-0.5,0.2-1,0.4-1.5,0.6
								C151.5,278.7,126.3,294.3,126.3,294.3z"/>
						</g>
					</g>
				</g>
				<g>
					<g>
						<g>
							<g>
								<path class="st22" d="M238.9,404.9c0,0-0.1-0.1-0.2-0.3c-0.1-0.3-0.2-0.6-0.4-1c-0.3-0.9-0.8-2.2-1.4-4
									c-1.2-3.5-2.8-8.5-4.8-14.8c-4-12.5-9.3-29.9-15.1-49.1c-2.9-9.6-5.6-18.8-8.1-27.1c-1.2-4.2-2.4-8.1-3.5-11.8
									c-0.6-1.9-1.1-3.6-1.6-5.4c-0.5-1.7-1-3.4-1.6-4.9c-1.2-3-3.1-5.3-5-7.1c-1.9-1.8-3.7-3.1-5.3-4.1c-1.5-1-2.7-1.8-3.6-2.3
									c-0.4-0.2-0.7-0.4-0.9-0.6c-0.2-0.1-0.3-0.2-0.3-0.2c0,0,0.1,0,0.3,0.2c0.3,0.1,0.6,0.3,1,0.5c0.9,0.5,2.1,1.2,3.6,2.2
									c1.6,1,3.4,2.3,5.4,4c1.9,1.8,3.9,4.1,5.2,7.2c0.7,1.5,1.2,3.2,1.7,4.9c0.5,1.7,1.1,3.5,1.6,5.3c1.1,3.7,2.3,7.7,3.6,11.8
									c2.5,8.3,5.3,17.5,8.2,27.1c5.8,19.2,11,36.5,14.8,49.2c1.9,6.2,3.5,11.3,4.6,14.9c0.5,1.7,1,3.1,1.3,4
									c0.1,0.4,0.2,0.8,0.3,1.1C238.9,404.8,238.9,404.9,238.9,404.9z"/>
							</g>
						</g>
					</g>
				</g>
				<g>
					<g>
						<g>
							<g>
								<path class="st22" d="M246.4,300.6c0.2,0.1-1.5,2.7-2.9,6.1c-1.4,3.4-2,6.4-2.3,6.4c-0.2,0,0.1-3.1,1.6-6.7
									C244.3,302.9,246.3,300.5,246.4,300.6z"/>
							</g>
						</g>
					</g>
				</g>
				<g>
					<g>
						<g>
							<g>
								<path class="st22" d="M252.1,304.6c0.1,0.2-2.5,1.3-5.1,3.4c-2.7,2.1-4.4,4.3-4.6,4.2c-0.2-0.1,1.3-2.6,4.1-4.8
									C249.3,305.3,252.1,304.4,252.1,304.6z"/>
							</g>
						</g>
					</g>
				</g>
				<g>
					<g>
						<g>
							<g>
								<path class="st22" d="M203.7,412.4c-0.2,0.1-8.6-25.7-18.7-57.5c-10.2-31.8-18.2-57.7-18-57.7c0.2-0.1,8.6,25.7,18.7,57.5
									C195.8,386.5,203.9,412.4,203.7,412.4z"/>
							</g>
						</g>
					</g>
				</g>
			</g>
		</g>
		<g>
			<g>
				<g>
					<polygon class="st22" points="165.6,262.3 267.3,263.3 286.2,209.7 212.3,210.2 195.1,258.4 165.6,258.9 					"/>
				</g>
			</g>
			<g>
				<path class="st10" d="M242.7,241.1c-2.3-0.3-3.8-2.4-3.5-4.7c0.3-2.3,2.4-3.8,4.7-3.5c2.3,0.3,3.8,2.4,3.5,4.7
					C247,239.9,244.9,241.5,242.7,241.1z"/>
			</g>
		</g>
		<g>
			<g>
				<g>
					<path class="st1" d="M157.3,117.3c1-3.6,3.6-5.3,7.1-6.5c3.5-1.2,7.6-0.5,10.5,1.7c2,1.5,3.5,3.7,5.8,4.5
						c3.8,1.3,8.3-1.5,12,0.2c2.2,1,3.4,3.7,2.9,6c-0.6,2.3-2.9,4.1-5.3,4c2.5,0.9,3.3,4.5,1.8,6.7c-1.5,2.2-4.5,3.1-7.1,2.6
						c-2.6-0.5-4.9-2.1-6.9-3.9c-2-1.8-3.8-3.8-5.9-5.4c-2.1-1.6-4.7-2.8-7.4-2.7c-3.6,0.2-6.7,2.9-8.3,6.1c-1.6,3.2-2,6.9-2.2,10.5
						c-0.2,3.6-0.3,7.3-1.3,10.7c-0.1,0.4-0.3,0.9-0.7,1c-0.6,0.2-1.1-0.4-1.4-1c-3.3-6.1-5.4-12.8-6.1-19.7
						c-0.4-4-0.3-7.8,1.9-11.1C149,117.7,154.6,115.2,157.3,117.3"/>
				</g>
			</g>
			<g>
				<g>
					<g>
						<g>
							<g>
								<g>
									<g>
										<g>
											<g>
												<g>
													<g>
														<g>
															<g>
																<g>
																	<g>
																		<path class="st23" d="M150.3,134.1l-1.8,40.5c-0.3,6.9,0.6,17.1,11.5,17.1l0,0c9.5-0.7,12.3-9.6,12.5-16
																			c0.1-3,0.3-5.6,0.3-5.9c0,0,10.3-0.5,11.6-10.7c0.6-4.9,1-15.1,1.2-24.4c0.3-9.9-7.2-18.4-17-19.4l-1-0.1
																			C156.9,114.6,150.6,123.4,150.3,134.1z"/>
																	</g>
																</g>
															</g>
														</g>
													</g>
												</g>
											</g>
										</g>
									</g>
									<g>
										<g>
											<g>
												<g>
													<g>
														<g>
															<g>
																<g>
																	<g>
																		<path class="st25" d="M172.9,169.5c0,0-6.5-0.2-12.9-5.2c0,0,2.4,7.7,12.6,7.8L172.9,169.5z"/>
																	</g>
																</g>
															</g>
														</g>
													</g>
												</g>
											</g>
										</g>
									</g>
								</g>
							</g>
						</g>
						<g>
							<g>
								<g>
									<g>
										<g>
											<g>
												<g>
													<g>
														<g>
															<g>
																<g>
																	<g>
																		<g>
																			<g>
																				<g>
																					<path class="st1" d="M181.9,141.2c-0.1,0.8-0.8,1.4-1.6,1.3c-0.8,0-1.4-0.7-1.4-1.5c0.1-0.8,0.8-1.4,1.6-1.3
																						C181.4,139.7,182,140.4,181.9,141.2z"/>
																				</g>
																			</g>
																		</g>
																	</g>
																</g>
															</g>
														</g>
													</g>
												</g>
												<g>
													<g>
														<g>
															<g>
																<g>
																	<g>
																		<g>
																			<g>
																				<g>
																					<g>
																						<path class="st1" d="M182.9,139.4c-0.2,0.2-1.2-0.8-2.8-0.9c-1.6-0.2-2.8,0.5-2.9,0.3
																							c-0.1-0.1,0.1-0.4,0.7-0.7c0.5-0.3,1.4-0.6,2.4-0.5c1,0.1,1.8,0.6,2.2,1C182.9,139,183,139.4,182.9,139.4z"/>
																					</g>
																				</g>
																			</g>
																		</g>
																	</g>
																</g>
															</g>
														</g>
													</g>
												</g>
											</g>
											<g>
												<g>
													<g>
														<g>
															<g>
																<g>
																	<g>
																		<g>
																			<g>
																				<g>
																					<path class="st1" d="M166.5,140.1c-0.1,0.8-0.8,1.4-1.6,1.3c-0.8,0-1.4-0.7-1.4-1.5c0.1-0.8,0.8-1.4,1.6-1.3
																						C166,138.6,166.6,139.3,166.5,140.1z"/>
																				</g>
																			</g>
																		</g>
																	</g>
																</g>
															</g>
														</g>
													</g>
												</g>
												<g>
													<g>
														<g>
															<g>
																<g>
																	<g>
																		<g>
																			<g>
																				<g>
																					<g>
																						<path class="st1" d="M167.5,138.1c-0.2,0.2-1.2-0.8-2.8-0.9c-1.6-0.2-2.8,0.5-2.9,0.3
																							c-0.1-0.1,0.1-0.4,0.7-0.7c0.5-0.3,1.4-0.6,2.4-0.5c1,0.1,1.8,0.6,2.2,1C167.5,137.7,167.6,138,167.5,138.1z"
																							/>
																					</g>
																				</g>
																			</g>
																		</g>
																	</g>
																</g>
															</g>
														</g>
													</g>
												</g>
											</g>
											<g>
												<g>
													<g>
														<g>
															<g>
																<g>
																	<g>
																		<g>
																			<g>
																				<g>
																					<path class="st1" d="M171.9,150.3c0-0.1,1-0.2,2.6-0.2c0.4,0,0.8,0,0.9-0.3c0.1-0.3,0-0.7-0.1-1.2
																						c-0.3-1-0.6-2.1-0.9-3.2c-1.2-4.5-2-8.2-1.8-8.2c0.2,0,1.3,3.6,2.5,8.1c0.3,1.1,0.6,2.2,0.8,3.2
																						c0.1,0.5,0.3,1,0,1.6c-0.1,0.3-0.5,0.5-0.7,0.5c-0.3,0.1-0.5,0-0.7,0C172.9,150.5,171.9,150.4,171.9,150.3z"/>
																				</g>
																			</g>
																		</g>
																	</g>
																</g>
															</g>
														</g>
													</g>
												</g>
											</g>
											<g>
												<g>
													<g>
														<g>
															<g>
																<g>
																	<g>
																		<g>
																			<g>
																				<g>
																					<path class="st1" d="M167.2,150.9c0.3,0,0.1,1.7,1.4,3.1c1.3,1.4,3.2,1.4,3.1,1.6c0,0.1-0.4,0.3-1.2,0.2
																						c-0.8-0.1-1.8-0.4-2.6-1.2c-0.8-0.8-1.1-1.9-1.1-2.6C166.9,151.3,167.1,150.9,167.2,150.9z"/>
																				</g>
																			</g>
																		</g>
																	</g>
																</g>
															</g>
														</g>
													</g>
												</g>
											</g>
										</g>
									</g>
								</g>
								<g>
									<g>
										<g>
											<g>
												<g>
													<g>
														<g>
															<g>
																<g>
																	<path class="st1" d="M168.5,132c-0.2,0.4-1.7,0-3.6,0.1c-1.9,0-3.4,0.4-3.6,0c-0.1-0.2,0.2-0.6,0.9-0.9
																		c0.6-0.3,1.6-0.6,2.7-0.6c1.1,0,2.1,0.3,2.7,0.6C168.3,131.4,168.6,131.8,168.5,132z"/>
																</g>
															</g>
														</g>
													</g>
												</g>
											</g>
										</g>
									</g>
								</g>
								<g>
									<g>
										<g>
											<g>
												<g>
													<g>
														<g>
															<g>
																<g>
																	<path class="st1" d="M182.8,134.8c-0.3,0.3-1.4-0.2-2.6-0.3c-1.3-0.2-2.4,0-2.6-0.4c-0.1-0.2,0.1-0.5,0.6-0.8
																		c0.5-0.3,1.3-0.5,2.2-0.4c0.9,0.1,1.6,0.5,2,0.9C182.8,134.3,182.9,134.7,182.8,134.8z"/>
																</g>
															</g>
														</g>
													</g>
												</g>
											</g>
										</g>
									</g>
								</g>
							</g>
						</g>
					</g>
				</g>
			</g>
			<g>
				<g>
					<g>
						<g>
							<g>
								<g>
									<g>
										<g>
											<g>
												<g>
													<path class="st23" d="M150.4,141.7c-0.2-0.1-6.8-2.8-7.3,4.2c-0.5,7,6.6,6.1,6.6,5.9
														C149.7,151.5,150.4,141.7,150.4,141.7z"/>
												</g>
											</g>
										</g>
									</g>
								</g>
							</g>
						</g>
					</g>
				</g>
				<g>
					<g>
						<g>
							<g>
								<g>
									<g>
										<g>
											<g>
												<g>
													<g>
														<path class="st25" d="M147.8,148.9c0,0-0.1,0.1-0.3,0.2c-0.2,0.1-0.6,0.1-0.9,0c-0.7-0.3-1.3-1.5-1.2-2.8
															c0-0.6,0.2-1.2,0.5-1.7c0.3-0.5,0.6-0.8,1-0.9c0.4-0.1,0.6,0.2,0.7,0.4c0.1,0.2,0,0.3,0.1,0.4c0,0,0.2-0.1,0.1-0.4
															c0-0.1-0.1-0.3-0.2-0.5c-0.2-0.1-0.4-0.2-0.7-0.2c-0.5,0-1.1,0.5-1.4,1c-0.3,0.5-0.5,1.2-0.6,1.9
															c-0.1,1.4,0.6,2.8,1.5,3.1c0.5,0.2,0.9,0,1.1-0.1C147.7,149.1,147.8,148.9,147.8,148.9z"/>
													</g>
												</g>
											</g>
										</g>
									</g>
								</g>
							</g>
						</g>
					</g>
				</g>
			</g>
			<g>
				<g>
					<path class="st1" d="M188,132.8c-4.6,0.7-9.5-1-12.7-4.3c-2.3-2.4-3.8-5.6-6.8-6.9c-2-0.9-4.4-0.7-6.4,0.2
						c-2,0.9-3.7,2.3-5.3,3.9c1.4,5.4-0.5,11-2.4,16.2c-0.2,0.6-0.5,1.2-1,1.5c-0.9,0.5-2.1-0.1-2.7-0.9c-1-1.3-1.3-3.1-1.4-4.7
						c-0.3-3.8,0-7.7,1.3-11.3c1.2-3.6,3.4-6.9,6.4-9.3c3.8-2.9,8.7-4.1,13.5-3.5s9.2,2.8,12.6,6.1c1.6,1.5,3.1,3.3,3.7,5.4"/>
				</g>
			</g>
		</g>
	</g>
</g>
<g id="Plant">
</g>
<g id="Devices">
	<g>
		<g>
			<polygon class="st1" points="325.8,165.3 306.8,245 312.1,245 330.9,165.3 			"/>
		</g>
		<g>
			<path class="st1" d="M318.5,217.8c-0.3,1.5,8.6,44.9,8.6,44.9h-4.3l-6.8-34.4L318.5,217.8z"/>
		</g>
	</g>
	<g>
		<g>
			<g>
				<g>
					<rect x="292.7" y="320.1" class="st11" width="89.2" height="94.6"/>
				</g>
				<g>
					<rect x="382" y="333.9" class="st1" width="4.4" height="4.4"/>
				</g>
				<g>
					<rect x="382" y="347.8" class="st1" width="4.4" height="4.4"/>
				</g>
				<g>
					<rect x="382" y="361.7" class="st1" width="4.4" height="4.4"/>
				</g>
				<g>
					<rect x="382" y="375.6" class="st1" width="4.4" height="4.4"/>
				</g>
				<g>
					<g>
						<path class="st1" d="M386.5,363c0,0,0.5-0.1,1.3-0.3c0.9-0.1,2.1-0.4,3.8-0.4c1.6,0,3.6,0.3,5.4,1.4c0.9,0.6,1.8,1.4,2.3,2.5
							c0.6,1.1,0.8,2.3,0.7,3.6c-0.1,1.2-0.5,2.4-1.1,3.4c-0.6,1-1.4,1.8-2.3,2.4c-1.7,1.3-3.6,1.8-5.2,2.1
							c-1.6,0.2-2.9,0.2-3.8,0.1c-0.9-0.1-1.4-0.2-1.4-0.2c0,0,0.5,0,1.4,0c0.9,0,2.2,0,3.7-0.3c1.5-0.3,3.3-0.9,5-2.1
							c1.6-1.2,3.1-3.2,3.2-5.5c0.1-1.2-0.1-2.3-0.6-3.3c-0.5-1-1.3-1.7-2.1-2.3c-1.7-1.1-3.6-1.4-5.2-1.5c-1.6,0-2.8,0.1-3.7,0.2
							C387,363,386.5,363,386.5,363z"/>
					</g>
				</g>
				<g>
					<g>
						<path class="st1" d="M385.4,349.2c0,0,0.1-0.1,0.4-0.3c0.3-0.1,0.7-0.3,1.3-0.5c1.2-0.4,3-0.7,5.1-0.3
							c0.5,0.1,1.1,0.3,1.6,0.6c0.5,0.3,1,0.9,1.2,1.6c0.4,1.3-0.1,2.8-1,4c-0.5,0.6-1.1,1.1-1.8,1.4c-0.7,0.3-1.7,0.3-2.4-0.1
							c-0.7-0.4-1.4-1.2-1.4-2.1c0-0.9,0.6-1.8,1.4-2.2c0.8-0.4,1.7-0.4,2.6-0.3c0.8,0.2,1.6,0.6,2.2,1.1c1.3,1,2.1,2.5,2.2,4
							c0.2,1.5-0.4,2.9-1.1,4c-0.8,1.1-1.8,1.8-2.7,2.3c-2,1-3.8,1.2-5,1.3c-0.6,0-1.1,0.1-1.4,0.1c-0.3,0-0.5,0-0.5,0
							c0,0,0.7-0.1,1.9-0.2c1.2-0.2,2.9-0.4,4.8-1.4c0.9-0.5,1.9-1.2,2.6-2.2c0.7-1,1.2-2.3,1-3.7c-0.2-1.4-0.9-2.7-2.1-3.6
							c-0.6-0.5-1.3-0.8-2-1c-0.7-0.2-1.5-0.1-2.2,0.2c-0.7,0.3-1.1,1-1.1,1.7c0,0.7,0.5,1.3,1.1,1.7c0.6,0.4,1.4,0.4,2,0.1
							c0.7-0.2,1.2-0.7,1.6-1.2c0.9-1,1.3-2.4,1-3.6c-0.3-1.2-1.4-1.8-2.5-2c-2.1-0.5-3.8-0.2-5,0.1
							C386,348.9,385.4,349.2,385.4,349.2z"/>
					</g>
				</g>
				<g>
					<g>
						<path class="st1" d="M385.5,335.6c0,0,0.3-0.1,1-0.2c0.6,0,1.6,0,2.7,0.4c1.1,0.4,2.3,1.1,3.3,2.2c1,1.2,1.7,2.8,1.7,4.6
							c0,1.8-0.5,3.5-1.4,4.7c-0.9,1.2-2.1,2-3.2,2.4c-1.1,0.4-2,0.5-2.6,0.5c-0.6,0-1-0.1-1-0.1c0-0.1,1.5,0.1,3.5-0.8
							c1-0.5,2.1-1.2,2.9-2.4c0.9-1.2,1.4-2.7,1.3-4.4c-0.1-1.7-0.7-3.2-1.6-4.3c-0.9-1.1-2.1-1.8-3.1-2.2
							C386.9,335.4,385.5,335.7,385.5,335.6z"/>
					</g>
				</g>
				<g>
					<g>
						<path class="st1" d="M319.2,269.8c0,0,0.4,0.6,0.8,1.8c0.4,1.2,0.8,3,1.2,5.4c0.4,2.4,0.7,5.3,1,8.6c0.3,3.4,0.6,7.2,1.1,11.5
							c0.1,1.1,0.3,2.1,0.5,3.2c0.2,1.1,0.5,2.2,1,3.2c0.5,1,1.3,1.9,2.2,2.7c0.9,0.8,1.8,1.6,2.9,2.2c2.1,1.3,4.6,2.2,7.2,2.5
							c2.6,0.3,5.4-0.1,7.9-1.4c2.5-1.2,4.5-3.6,5.1-6.4c0.3-1.4,0.2-2.9-0.3-4.3c-0.5-1.4-1.5-2.5-2.8-3.3
							c-1.2-0.8-2.7-1.3-4.2-1.4c-1.5-0.1-3.1,0.3-4.3,1.3c-0.6,0.5-1.1,1-1.4,1.7c-0.3,0.7-0.4,1.4-0.3,2.2
							c0.3,1.5,1.4,2.8,2.8,3.5c1.4,0.8,3,1.1,4.6,1.3c1.6,0.2,3.2,0.3,4.7,0.3c3.2,0.1,6.3-0.2,9.3-0.5c6.1-0.7,12-1.7,17.6-1.7
							c5.6-0.1,11.1,0.7,15.7,3c2.3,1.1,4.3,2.6,5.8,4.4c1.6,1.8,2.6,3.9,3,6c0.9,4.3-0.1,8.3-1.7,11.3c-1.7,3-4,5-5.9,6.3
							c-2,1.3-3.7,2.1-4.9,2.5c-1.2,0.4-1.8,0.6-1.8,0.6s0.2-0.1,0.5-0.2c0.3-0.1,0.8-0.3,1.3-0.5c1.2-0.5,2.9-1.2,4.8-2.6
							c1.9-1.4,4.2-3.4,5.8-6.3c1.6-2.9,2.5-6.9,1.6-11c-0.5-2-1.4-4.1-3-5.8c-1.5-1.7-3.5-3.2-5.7-4.2c-4.5-2.2-9.9-3-15.5-2.9
							c-5.6,0.1-11.5,1.1-17.6,1.7c-3.1,0.3-6.2,0.6-9.4,0.5c-1.6,0-3.2-0.1-4.8-0.3c-1.6-0.2-3.3-0.5-4.7-1.3
							c-1.5-0.8-2.7-2.2-3-3.9c-0.2-0.8,0-1.7,0.3-2.5c0.4-0.8,0.9-1.4,1.6-1.9c1.3-1,3-1.4,4.6-1.4c1.6,0.1,3.2,0.6,4.5,1.5
							c1.3,0.9,2.4,2.1,3,3.6c0.6,1.5,0.6,3.1,0.3,4.5c-0.7,3-2.8,5.4-5.4,6.7c-2.6,1.3-5.5,1.7-8.1,1.4c-2.7-0.3-5.2-1.2-7.4-2.5
							c-1.1-0.7-2.1-1.4-2.9-2.3c-0.9-0.9-1.7-1.7-2.3-2.8c-0.5-1.1-0.8-2.2-1-3.3c-0.2-1.1-0.4-2.2-0.5-3.2
							c-0.5-4.2-0.8-8.1-1.1-11.5c-0.3-3.4-0.6-6.3-0.9-8.6c-0.3-2.4-0.7-4.2-1.1-5.4c-0.2-0.6-0.3-1.1-0.5-1.3
							C319.3,270,319.2,269.8,319.2,269.8z"/>
					</g>
				</g>
			</g>
			<g>
				<g>
					<path class="st1" d="M376.9,410.7c0,0,0-0.1,0-0.4c0-0.3,0-0.7,0-1.2c0-1.1,0-2.6,0-4.7c0-4.1,0-10.1-0.1-17.7
						c0-15.2-0.1-36.9-0.1-62.9l0.2,0.2c-23.6,0-51.2,0-80.7,0h0l0.3-0.3c0,32,0,61.8,0,86.9l-0.2-0.2c24.2,0,44.3,0.1,58.4,0.1
						c7.1,0,12.6,0,16.4,0.1c1.9,0,3.3,0,4.3,0C376.4,410.7,376.9,410.7,376.9,410.7s-0.5,0-1.5,0c-1,0-2.4,0-4.3,0
						c-3.8,0-9.3,0-16.3,0.1c-14.1,0-34.3,0.1-58.6,0.1l-0.2,0l0-0.2c0-25.1,0-55,0-86.9l0-0.3h0.3h0c29.4,0,57,0,80.7,0h0.2l0,0.2
						c0,26-0.1,47.8-0.1,63c0,7.6,0,13.6-0.1,17.7c0,2,0,3.6,0,4.6c0,0.5,0,0.9,0,1.2C376.9,410.6,376.9,410.7,376.9,410.7z"/>
				</g>
			</g>
		</g>
		<g>
			<g>
				<path class="st1" d="M354.2,334.5c0,0.2-0.2,0.4-0.4,0.4c-0.2,0-0.4-0.2-0.4-0.4c0-0.2,0.2-0.4,0.4-0.4
					C354,334.1,354.2,334.3,354.2,334.5z"/>
			</g>
			<g>
				<path class="st1" d="M356.5,334.5c0,0.2-0.2,0.4-0.4,0.4c-0.2,0-0.4-0.2-0.4-0.4c0-0.2,0.2-0.4,0.4-0.4
					C356.3,334.1,356.5,334.3,356.5,334.5z"/>
			</g>
			<g>
				<path class="st1" d="M358.7,334.5c0,0.2-0.2,0.4-0.4,0.4c-0.2,0-0.4-0.2-0.4-0.4c0-0.2,0.2-0.4,0.4-0.4
					C358.5,334.1,358.7,334.3,358.7,334.5z"/>
			</g>
			<g>
				<path class="st1" d="M361,334.5c0,0.2-0.2,0.4-0.4,0.4c-0.2,0-0.4-0.2-0.4-0.4c0-0.2,0.2-0.4,0.4-0.4
					C360.8,334.1,361,334.3,361,334.5z"/>
			</g>
			<g>
				<path class="st1" d="M363.3,334.5c0,0.2-0.2,0.4-0.4,0.4c-0.2,0-0.4-0.2-0.4-0.4c0-0.2,0.2-0.4,0.4-0.4
					C363.1,334.1,363.3,334.3,363.3,334.5z"/>
			</g>
			<g>
				<path class="st1" d="M365.6,334.5c0,0.2-0.2,0.4-0.4,0.4c-0.2,0-0.4-0.2-0.4-0.4c0-0.2,0.2-0.4,0.4-0.4
					C365.4,334.1,365.6,334.3,365.6,334.5z"/>
			</g>
			<g>
				<path class="st1" d="M367.8,334.5c0,0.2-0.2,0.4-0.4,0.4c-0.2,0-0.4-0.2-0.4-0.4c0-0.2,0.2-0.4,0.4-0.4
					C367.7,334.1,367.8,334.3,367.8,334.5z"/>
			</g>
			<g>
				<circle class="st1" cx="366.4" cy="336" r="0.4"/>
			</g>
			<g>
				<circle class="st1" cx="364" cy="336" r="0.4"/>
			</g>
			<g>
				<path class="st1" d="M362.1,336c0,0.2-0.2,0.4-0.4,0.4c-0.2,0-0.4-0.2-0.4-0.4c0-0.2,0.2-0.4,0.4-0.4
					C361.9,335.6,362.1,335.8,362.1,336z"/>
			</g>
			<g>
				<circle class="st1" cx="359.4" cy="336" r="0.4"/>
			</g>
			<g>
				<circle class="st1" cx="357.1" cy="336" r="0.4"/>
			</g>
			<g>
				<path class="st1" d="M355.1,336c0,0.2-0.2,0.4-0.4,0.4c-0.2,0-0.4-0.2-0.4-0.4c0-0.2,0.2-0.4,0.4-0.4
					C355,335.6,355.1,335.8,355.1,336z"/>
			</g>
			<g>
				<path class="st1" d="M354.2,337.7c0,0.2-0.2,0.4-0.4,0.4c-0.2,0-0.4-0.2-0.4-0.4c0-0.2,0.2-0.4,0.4-0.4
					C354,337.3,354.2,337.5,354.2,337.7z"/>
			</g>
			<g>
				<path class="st1" d="M356.5,337.7c0,0.2-0.2,0.4-0.4,0.4c-0.2,0-0.4-0.2-0.4-0.4c0-0.2,0.2-0.4,0.4-0.4
					C356.3,337.3,356.5,337.5,356.5,337.7z"/>
			</g>
			<g>
				<path class="st1" d="M358.7,337.7c0,0.2-0.2,0.4-0.4,0.4c-0.2,0-0.4-0.2-0.4-0.4c0-0.2,0.2-0.4,0.4-0.4
					C358.5,337.3,358.7,337.5,358.7,337.7z"/>
			</g>
			<g>
				<path class="st1" d="M361,337.7c0,0.2-0.2,0.4-0.4,0.4c-0.2,0-0.4-0.2-0.4-0.4c0-0.2,0.2-0.4,0.4-0.4
					C360.8,337.3,361,337.5,361,337.7z"/>
			</g>
			<g>
				<path class="st1" d="M363.3,337.7c0,0.2-0.2,0.4-0.4,0.4c-0.2,0-0.4-0.2-0.4-0.4c0-0.2,0.2-0.4,0.4-0.4
					C363.1,337.3,363.3,337.5,363.3,337.7z"/>
			</g>
			<g>
				<path class="st1" d="M365.6,337.7c0,0.2-0.2,0.4-0.4,0.4c-0.2,0-0.4-0.2-0.4-0.4c0-0.2,0.2-0.4,0.4-0.4
					C365.4,337.3,365.6,337.5,365.6,337.7z"/>
			</g>
			<g>
				<path class="st1" d="M367.8,337.7c0,0.2-0.2,0.4-0.4,0.4c-0.2,0-0.4-0.2-0.4-0.4c0-0.2,0.2-0.4,0.4-0.4
					C367.7,337.3,367.8,337.5,367.8,337.7z"/>
			</g>
			<g>
				<path class="st1" d="M366.8,339.3c0,0.2-0.2,0.4-0.4,0.4c-0.2,0-0.4-0.2-0.4-0.4c0-0.2,0.2-0.4,0.4-0.4
					C366.6,338.9,366.8,339,366.8,339.3z"/>
			</g>
			<g>
				<path class="st1" d="M364.5,339.3c0,0.2-0.2,0.4-0.4,0.4s-0.4-0.2-0.4-0.4c0-0.2,0.2-0.4,0.4-0.4S364.5,339,364.5,339.3z"/>
			</g>
			<g>
				<path class="st1" d="M362.1,339.3c0,0.2-0.2,0.4-0.4,0.4c-0.2,0-0.4-0.2-0.4-0.4c0-0.2,0.2-0.4,0.4-0.4
					C361.9,338.9,362.1,339,362.1,339.3z"/>
			</g>
			<g>
				<path class="st1" d="M359.8,339.3c0,0.2-0.2,0.4-0.4,0.4c-0.2,0-0.4-0.2-0.4-0.4c0-0.2,0.2-0.4,0.4-0.4
					C359.6,338.9,359.8,339,359.8,339.3z"/>
			</g>
			<g>
				<path class="st1" d="M357.5,339.3c0,0.2-0.2,0.4-0.4,0.4c-0.2,0-0.4-0.2-0.4-0.4c0-0.2,0.2-0.4,0.4-0.4
					C357.3,338.9,357.5,339,357.5,339.3z"/>
			</g>
			<g>
				<path class="st1" d="M355.1,339.3c0,0.2-0.2,0.4-0.4,0.4c-0.2,0-0.4-0.2-0.4-0.4c0-0.2,0.2-0.4,0.4-0.4
					C355,338.9,355.1,339,355.1,339.3z"/>
			</g>
			<g>
				<path class="st1" d="M354.2,341c0,0.2-0.2,0.4-0.4,0.4c-0.2,0-0.4-0.2-0.4-0.4c0-0.2,0.2-0.4,0.4-0.4
					C354,340.6,354.2,340.8,354.2,341z"/>
			</g>
			<g>
				<path class="st1" d="M356.5,341c0,0.2-0.2,0.4-0.4,0.4c-0.2,0-0.4-0.2-0.4-0.4c0-0.2,0.2-0.4,0.4-0.4
					C356.3,340.6,356.5,340.8,356.5,341z"/>
			</g>
			<g>
				<path class="st1" d="M358.7,341c0,0.2-0.2,0.4-0.4,0.4c-0.2,0-0.4-0.2-0.4-0.4c0-0.2,0.2-0.4,0.4-0.4
					C358.5,340.6,358.7,340.8,358.7,341z"/>
			</g>
			<g>
				<path class="st1" d="M361,341c0,0.2-0.2,0.4-0.4,0.4c-0.2,0-0.4-0.2-0.4-0.4c0-0.2,0.2-0.4,0.4-0.4
					C360.8,340.6,361,340.8,361,341z"/>
			</g>
			<g>
				<path class="st1" d="M363.3,341c0,0.2-0.2,0.4-0.4,0.4c-0.2,0-0.4-0.2-0.4-0.4c0-0.2,0.2-0.4,0.4-0.4
					C363.1,340.6,363.3,340.8,363.3,341z"/>
			</g>
			<g>
				<path class="st1" d="M365.6,341c0,0.2-0.2,0.4-0.4,0.4c-0.2,0-0.4-0.2-0.4-0.4c0-0.2,0.2-0.4,0.4-0.4
					C365.4,340.6,365.6,340.8,365.6,341z"/>
			</g>
			<g>
				<path class="st1" d="M367.8,341c0,0.2-0.2,0.4-0.4,0.4c-0.2,0-0.4-0.2-0.4-0.4c0-0.2,0.2-0.4,0.4-0.4
					C367.7,340.6,367.8,340.8,367.8,341z"/>
			</g>
			<g>
				<circle class="st1" cx="366.4" cy="342.5" r="0.4"/>
			</g>
			<g>
				<circle class="st1" cx="364" cy="342.5" r="0.4"/>
			</g>
			<g>
				<path class="st1" d="M362.1,342.5c0,0.2-0.2,0.4-0.4,0.4c-0.2,0-0.4-0.2-0.4-0.4c0-0.2,0.2-0.4,0.4-0.4
					C361.9,342.1,362.1,342.3,362.1,342.5z"/>
			</g>
			<g>
				<circle class="st1" cx="359.4" cy="342.5" r="0.4"/>
			</g>
			<g>
				<circle class="st1" cx="357.1" cy="342.5" r="0.4"/>
			</g>
			<g>
				<path class="st1" d="M355.1,342.5c0,0.2-0.2,0.4-0.4,0.4c-0.2,0-0.4-0.2-0.4-0.4c0-0.2,0.2-0.4,0.4-0.4
					C355,342.1,355.1,342.3,355.1,342.5z"/>
			</g>
		</g>
	</g>
	<g>
		<g>
			<g>
				<path class="st13" d="M322.6,241c0,0,0.6,0,1.6,0.3c1,0.3,2.5,1.1,3.9,2.6c1.4,1.5,2.6,3.8,3.5,6.6c0.9,2.8,1.7,6,2.2,9.7
					c1.1,7.3,1.3,16.1,0.6,25.8c-0.2,2.4-0.8,5-2.2,7.1c-0.7,1.1-1.7,2-2.8,2.7c-1.1,0.7-2.5,1.1-3.9,0.9c-1.4-0.1-2.7-0.7-3.7-1.7
					c-0.5-0.5-0.9-1.1-1.1-1.8c-0.2-0.7-0.2-1.5,0-2.2c0.4-1.4,1.4-2.6,2.8-3.1c0.7-0.3,1.5-0.2,2.2,0c0.7,0.3,1.3,0.7,1.8,1.3
					c0.9,1.2,1.2,2.7,1,4.1c-0.2,1.4-0.8,2.7-1.4,3.9c-1.4,2.4-3.4,4.4-5.7,5.7c-4.7,2.7-10.5,2.6-14.8,0.2c-2.2-1.2-4-2.8-5.4-4.7
					c-1.4-1.8-2.5-3.8-3.3-5.9c-1.5-4.1-2-8.1-2.2-11.8c-0.2-3.7,0-7-0.4-9.9c-0.2-1.4-0.5-2.8-0.9-3.9c-0.4-1.2-1-2.1-1.7-2.9
					c-1.3-1.6-2.7-2.4-3.7-2.7c-1-0.3-1.6-0.3-1.6-0.4c0,0,0.6,0,1.6,0.3c1,0.3,2.5,1.1,3.8,2.7c0.7,0.8,1.3,1.8,1.7,3
					c0.5,1.2,0.8,2.5,1,4c0.4,2.9,0.2,6.2,0.4,9.9c0.2,3.6,0.7,7.7,2.2,11.7c0.8,2,1.8,4,3.2,5.7c1.4,1.8,3.2,3.4,5.3,4.5
					c4.2,2.3,9.8,2.4,14.3-0.2c2.2-1.3,4.2-3.2,5.5-5.6c0.6-1.2,1.2-2.4,1.4-3.7c0.2-1.3-0.1-2.7-0.9-3.8c-0.4-0.5-0.9-0.9-1.5-1.2
					c-0.6-0.2-1.3-0.2-1.9,0c-1.2,0.4-2.1,1.6-2.5,2.8c-0.4,1.2,0.1,2.6,1,3.5c0.9,0.9,2.1,1.4,3.4,1.6c1.3,0.1,2.5-0.2,3.6-0.9
					c1.1-0.6,2-1.6,2.7-2.6c1.4-2.1,1.9-4.5,2.2-6.9c0.7-9.6,0.5-18.4-0.5-25.6c-0.5-3.6-1.3-6.9-2.1-9.6c-0.8-2.8-2-5-3.4-6.5
					c-1.4-1.5-2.8-2.3-3.8-2.6C323.2,241.1,322.6,241.1,322.6,241z"/>
			</g>
		</g>
		<g>
			<rect x="281.6" y="255.5" class="st13" width="33.2" height="6.3"/>
		</g>
	</g>
</g>
<g id="Desk">
	<g>
		<g>
			<polygon class="st1" points="28.6,262.7 28.6,272.2 81.5,272.2 81.5,414.7 86.4,414.7 86.4,272.2 307.5,273.3 307.5,414.7 
				312.3,414.7 312.3,273.1 346.4,273.3 346.4,261.8 			"/>
		</g>
		<g>
			<polygon class="st1" points="62.5,270.4 83.3,285.4 81.5,287.1 60.5,271.3 			"/>
		</g>
		<g>
			<polygon class="st1" points="332,271.8 307.7,289 309.5,290.8 333.9,272.7 			"/>
		</g>
		<g>
			<rect x="105.6" y="259.1" class="st1" width="54.7" height="4"/>
		</g>
	</g>
</g>
</svg>
